<svg xmlns="http://www.w3.org/2000/svg" viewBox="0 0 511.67 500.8"><defs><style>.cls-1{fill:#666;}.cls-2{fill:#a8f4a8;}.cls-3{fill:#5e5e5e;}.cls-4{fill:#e8f9e8;}.cls-5{fill:#3ecc36;}</style></defs><g id="Capa_2" data-name="Capa 2"><g id="Capa_3" data-name="Capa 3"><path d="M82.89,399.86v-42h20.52q7.92,0,11.91,3a9.44,9.44,0,0,1,4,7.92,10.09,10.09,0,0,1-1.62,5.73,10.57,10.57,0,0,1-4.47,3.75,15.17,15.17,0,0,1-6.45,1.32l1.14-2.52a17.36,17.36,0,0,1,7,1.32,11,11,0,0,1,4.77,3.84,10.61,10.61,0,0,1,1.74,6.18,9.77,9.77,0,0,1-4.26,8.43q-4.26,3-12.54,3Zm9.66-7.32H104a10.66,10.66,0,0,0,5.7-1.26,4.3,4.3,0,0,0,2-3.9,4.35,4.35,0,0,0-2-4,10.66,10.66,0,0,0-5.7-1.26H91.83v-7.08h10.38a10,10,0,0,0,5.43-1.23,4.17,4.17,0,0,0,1.89-3.75,4.09,4.09,0,0,0-1.89-3.72,10.17,10.17,0,0,0-5.43-1.2H92.55Z"/><path d="M132.81,363.08a6,6,0,0,1-4.26-1.5,5.08,5.08,0,0,1,0-7.44,6,6,0,0,1,4.26-1.5,6.28,6.28,0,0,1,4.23,1.41,4.56,4.56,0,0,1,1.65,3.63,5.09,5.09,0,0,1-1.62,3.87A6,6,0,0,1,132.81,363.08Zm-4.68,36.78V367.58h9.36v32.28Z"/><path d="M162.21,400.34a20.6,20.6,0,0,1-9.66-2.16,15.73,15.73,0,0,1-8.7-14.46,16.8,16.8,0,0,1,2.19-8.58,15.41,15.41,0,0,1,6.12-5.91A18.27,18.27,0,0,1,161,367.1a17.82,17.82,0,0,1,8.55,2,15.32,15.32,0,0,1,6,5.76,17.14,17.14,0,0,1,2.22,8.94q0,.54-.06,1.23t-.12,1.29H151.41V380.9h21.3l-3.66,1.62a8.54,8.54,0,0,0-1-4.38,7.45,7.45,0,0,0-2.82-2.91,8.18,8.18,0,0,0-4.2-1.05,8.35,8.35,0,0,0-4.23,1.05,7.33,7.33,0,0,0-2.85,2.94,9.28,9.28,0,0,0-1,4.47v1.44a8.86,8.86,0,0,0,1.2,4.68,7.92,7.92,0,0,0,3.3,3,11.16,11.16,0,0,0,5,1,12,12,0,0,0,4.47-.78,11,11,0,0,0,3.57-2.34l5,5.4A14.51,14.51,0,0,1,170,399,20.65,20.65,0,0,1,162.21,400.34Z"/><path d="M203.67,367.1a15.06,15.06,0,0,1,6.87,1.53,11.2,11.2,0,0,1,4.77,4.68,16.69,16.69,0,0,1,1.74,8.07v18.48h-9.36v-17q0-3.9-1.71-5.76a6.25,6.25,0,0,0-4.83-1.86,8.2,8.2,0,0,0-4,1A6.71,6.71,0,0,0,194.4,379a10.49,10.49,0,0,0-1,4.92v16h-9.36V367.58H193v8.94l-1.68-2.7a11.9,11.9,0,0,1,5-5A15.35,15.35,0,0,1,203.67,367.1Z"/><path d="M233.73,399.86l-13.56-32.28h9.6l11.28,27.78h-4.8L248,367.58H257l-13.62,32.28Z"/><path d="M275.91,400.34a20.57,20.57,0,0,1-9.66-2.16,15.73,15.73,0,0,1-8.7-14.46,16.7,16.7,0,0,1,2.19-8.58,15.41,15.41,0,0,1,6.12-5.91,18.21,18.21,0,0,1,8.85-2.13,17.85,17.85,0,0,1,8.55,2,15.45,15.45,0,0,1,6,5.76,17.23,17.23,0,0,1,2.22,8.94c0,.36,0,.77-.06,1.23s-.08.89-.12,1.29H265.11V380.9h21.3l-3.66,1.62a8.64,8.64,0,0,0-1-4.38,7.52,7.52,0,0,0-2.82-2.91,8.18,8.18,0,0,0-4.2-1.05,8.32,8.32,0,0,0-4.23,1.05,7.27,7.27,0,0,0-2.85,2.94,9.17,9.17,0,0,0-1,4.47v1.44a8.76,8.76,0,0,0,1.2,4.68,7.86,7.86,0,0,0,3.3,3,11.16,11.16,0,0,0,5,1,12,12,0,0,0,4.47-.78,11.14,11.14,0,0,0,3.57-2.34l5,5.4a14.58,14.58,0,0,1-5.58,3.87A20.65,20.65,0,0,1,275.91,400.34Z"/><path d="M317.37,367.1a15,15,0,0,1,6.86,1.53,11.09,11.09,0,0,1,4.77,4.68,16.58,16.58,0,0,1,1.75,8.07v18.48h-9.37v-17q0-3.9-1.71-5.76a6.22,6.22,0,0,0-4.83-1.86,8.23,8.23,0,0,0-4,1,6.71,6.71,0,0,0-2.76,2.82,10.49,10.49,0,0,0-1,4.92v16h-9.35V367.58h8.93v8.94l-1.68-2.7a12,12,0,0,1,5-5A15.36,15.36,0,0,1,317.37,367.1Z"/><path d="M343.88,363.08a6,6,0,0,1-4.26-1.5,5.08,5.08,0,0,1,0-7.44,6,6,0,0,1,4.26-1.5,6.33,6.33,0,0,1,4.24,1.41,4.58,4.58,0,0,1,1.64,3.63,5.09,5.09,0,0,1-1.62,3.87A6,6,0,0,1,343.88,363.08Zm-4.67,36.78V367.58h9.35v32.28Z"/><path d="M371.12,400.34a16.4,16.4,0,0,1-8.22-2.07,15,15,0,0,1-5.76-5.79,19.32,19.32,0,0,1,0-17.52,15,15,0,0,1,5.76-5.79,16.4,16.4,0,0,1,8.22-2.07,13.82,13.82,0,0,1,7.14,1.8,11.83,11.83,0,0,1,4.74,5.46,22.53,22.53,0,0,1,1.68,9.36,23.53,23.53,0,0,1-1.62,9.36,11.35,11.35,0,0,1-4.65,5.49A14.21,14.21,0,0,1,371.12,400.34Zm1.56-7.68a8.39,8.39,0,0,0,4.2-1.05,7.64,7.64,0,0,0,3-3.09,9.89,9.89,0,0,0,1.11-4.8,9.68,9.68,0,0,0-1.11-4.8,7.73,7.73,0,0,0-3-3,8.39,8.39,0,0,0-4.2-1.05,8.27,8.27,0,0,0-4.14,1.05,7.73,7.73,0,0,0-3,3,9.68,9.68,0,0,0-1.11,4.8,9.89,9.89,0,0,0,1.11,4.8,7.64,7.64,0,0,0,3,3.09A8.27,8.27,0,0,0,372.68,392.66Zm8.52,7.2v-6.6l.18-9.6-.6-9.54V355.34h9.36v44.52Z"/><path d="M414.08,400.34a18.79,18.79,0,0,1-9.09-2.16,16.78,16.78,0,0,1-6.27-23.07,16,16,0,0,1,6.27-5.88,19,19,0,0,1,9.09-2.13,19.31,19.31,0,0,1,9.18,2.13,16,16,0,0,1,6.3,5.88,16.36,16.36,0,0,1-6.3,23.07A19.09,19.09,0,0,1,414.08,400.34Zm0-7.68a8.35,8.35,0,0,0,4.23-1.05,7.7,7.7,0,0,0,2.94-3.09,9.89,9.89,0,0,0,1.11-4.8,9.68,9.68,0,0,0-1.11-4.8,7.8,7.8,0,0,0-2.94-3,8.23,8.23,0,0,0-4.17-1.05,8.39,8.39,0,0,0-4.2,1.05,7.73,7.73,0,0,0-3,3,9.68,9.68,0,0,0-1.11,4.8,9.89,9.89,0,0,0,1.11,4.8,7.64,7.64,0,0,0,3,3.09A8.27,8.27,0,0,0,414.08,392.66Z"/><path class="cls-1" d="M44.43,494A15,15,0,0,1,39,493a12.63,12.63,0,0,1-4.34-2.72,12.48,12.48,0,0,1-2.86-4.14,13.74,13.74,0,0,1,0-10.44,12.45,12.45,0,0,1,2.88-4.14A13.18,13.18,0,0,1,39,468.85a15.25,15.25,0,0,1,5.42-1A15.08,15.08,0,0,1,50.4,469a11.58,11.58,0,0,1,4.47,3.33l-3.78,3.46a8.62,8.62,0,0,0-2.86-2.23,8,8,0,0,0-3.48-.76,8.57,8.57,0,0,0-3.24.6A7.48,7.48,0,0,0,39,475.1a7.6,7.6,0,0,0-1.68,2.56,8.58,8.58,0,0,0-.59,3.27,8.67,8.67,0,0,0,.59,3.28,7.58,7.58,0,0,0,4.23,4.23,8.76,8.76,0,0,0,3.24.59,8,8,0,0,0,3.48-.77A9,9,0,0,0,51.09,486l3.78,3.45a11.63,11.63,0,0,1-4.47,3.35A14.85,14.85,0,0,1,44.43,494Z"/><path class="cls-1" d="M64.19,493.82a8.93,8.93,0,0,1-3.85-.77,6,6,0,0,1-2.5-2.11,5.27,5.27,0,0,1-.88-3,5.1,5.1,0,0,1,3.52-5,13.47,13.47,0,0,1,4.83-.72h5.11v3.24H65.88a4.2,4.2,0,0,0-2.71.65,2.15,2.15,0,0,0,.1,3.33,3.77,3.77,0,0,0,2.29.63,5.09,5.09,0,0,0,2.57-.65,3.5,3.5,0,0,0,1.6-2L70.6,490a5.1,5.1,0,0,1-2.23,2.79A7.93,7.93,0,0,1,64.19,493.82Zm5.91-.29v-3.78l-.37-.83v-6.76a3.62,3.62,0,0,0-1.09-2.81,4.88,4.88,0,0,0-3.37-1,9.58,9.58,0,0,0-3,.49,8.4,8.4,0,0,0-2.57,1.31l-2-3.92a11.49,11.49,0,0,1,3.82-1.75,17.41,17.41,0,0,1,4.54-.59A10.27,10.27,0,0,1,72.9,476c1.64,1.4,2.45,3.57,2.45,6.52v11Z"/><path class="cls-1" d="M80.43,493.53V474.16h5.36v5.51L85,478.05a6.15,6.15,0,0,1,2.77-3.11,9.39,9.39,0,0,1,4.64-1.06v5.22a5.22,5.22,0,0,0-.63-.11,4,4,0,0,0-.59,0,5.28,5.28,0,0,0-3.78,1.33A5.41,5.41,0,0,0,86,484.39v9.14Z"/><path class="cls-1" d="M103.83,492.6A10.14,10.14,0,0,1,99,491.43a9.09,9.09,0,0,1-3.49-3.28,10,10,0,0,1,0-9.86A8.9,8.9,0,0,1,99,475a10.25,10.25,0,0,1,4.83-1.15,9.15,9.15,0,0,1,4.37,1,6.81,6.81,0,0,1,2.9,3.07,11.94,11.94,0,0,1,1,5.3,11.77,11.77,0,0,1-1,5.27,6.94,6.94,0,0,1-2.9,3.08A9,9,0,0,1,103.83,492.6Zm.9,8.2a20.93,20.93,0,0,1-5.28-.66,11.54,11.54,0,0,1-4.23-2l2.24-4.07a9.09,9.09,0,0,0,3.11,1.64,12.11,12.11,0,0,0,3.76.59,6,6,0,0,0,4.32-1.33,5.3,5.3,0,0,0,1.37-4v-2.88l.36-4.89-.11-4.94v-4.14h5.33v16.13c0,3.58-.94,6.22-2.81,7.94S108.23,500.8,104.73,500.8ZM105,488a5.52,5.52,0,0,0,2.63-.61,4.52,4.52,0,0,0,1.8-1.69,5.11,5.11,0,0,0,0-5,4.31,4.31,0,0,0-1.8-1.63,6.21,6.21,0,0,0-5.24,0,4.48,4.48,0,0,0-1.84,1.63,4.7,4.7,0,0,0,1.84,6.68A5.52,5.52,0,0,0,105,488Z"/><path class="cls-1" d="M126.79,493.82a9,9,0,0,1-3.85-.77,6.06,6.06,0,0,1-2.5-2.11,5.27,5.27,0,0,1-.88-3,5.09,5.09,0,0,1,3.53-5,13.41,13.41,0,0,1,4.82-.72H133v3.24h-4.53a4.24,4.24,0,0,0-2.72.65,2.07,2.07,0,0,0-.74,1.62,2,2,0,0,0,.85,1.71,3.72,3.72,0,0,0,2.28.63,5.15,5.15,0,0,0,2.58-.65,3.54,3.54,0,0,0,1.6-2l.86,2.63a5.1,5.1,0,0,1-2.23,2.79A7.91,7.91,0,0,1,126.79,493.82Zm5.91-.29v-3.78l-.36-.83v-6.76a3.63,3.63,0,0,0-1.1-2.81,4.84,4.84,0,0,0-3.36-1,9.64,9.64,0,0,0-3,.49,8.52,8.52,0,0,0-2.57,1.31l-2-3.92a11.44,11.44,0,0,1,3.81-1.75,17.41,17.41,0,0,1,4.54-.59,10.32,10.32,0,0,1,6.88,2.08q2.44,2.1,2.44,6.52v11Z"/><path class="cls-1" d="M154.8,473.88a9,9,0,0,1,4.12.91,6.7,6.7,0,0,1,2.87,2.81,10,10,0,0,1,1,4.84v11.09h-5.62V483.31a5,5,0,0,0-1-3.46,3.76,3.76,0,0,0-2.9-1.11,4.94,4.94,0,0,0-2.39.57,4.1,4.1,0,0,0-1.66,1.69,6.28,6.28,0,0,0-.59,3v9.57H143V474.16h5.36v5.37l-1-1.62a7.16,7.16,0,0,1,3-3A9.2,9.2,0,0,1,154.8,473.88Z"/><path class="cls-1" d="M176.37,493.82a9.85,9.85,0,0,1-4.94-1.24A9,9,0,0,1,168,489.1a11.59,11.59,0,0,1,0-10.51,9,9,0,0,1,3.45-3.47,9.85,9.85,0,0,1,4.94-1.24,8.27,8.27,0,0,1,4.28,1.08,7.12,7.12,0,0,1,2.85,3.27,13.6,13.6,0,0,1,1,5.62,14,14,0,0,1-1,5.61,6.85,6.85,0,0,1-2.79,3.3A8.5,8.5,0,0,1,176.37,493.82Zm.93-4.61a5,5,0,0,0,2.52-.63,4.63,4.63,0,0,0,1.79-1.85,6,6,0,0,0,.66-2.88,5.84,5.84,0,0,0-.66-2.88,4.68,4.68,0,0,0-1.79-1.82,5,5,0,0,0-2.52-.63,4.94,4.94,0,0,0-2.48.63A4.65,4.65,0,0,0,173,481a5.73,5.73,0,0,0-.67,2.88,5.89,5.89,0,0,0,.67,2.88,4.6,4.6,0,0,0,1.78,1.85A4.94,4.94,0,0,0,177.3,489.21Zm5.12,4.32v-4l.1-5.76-.36-5.72V466.82h5.62v26.71Z"/><path class="cls-1" d="M202.14,493.82a11.17,11.17,0,0,1-5.45-1.3,9.84,9.84,0,0,1,0-17.37,11.39,11.39,0,0,1,5.45-1.27,11.6,11.6,0,0,1,5.51,1.27,9.61,9.61,0,0,1,3.78,3.53,9.8,9.8,0,0,1-3.78,13.84A11.38,11.38,0,0,1,202.14,493.82Zm0-4.61a5,5,0,0,0,2.54-.63,4.63,4.63,0,0,0,1.76-1.85,5.89,5.89,0,0,0,.67-2.88,5.73,5.73,0,0,0-.67-2.88,4.67,4.67,0,0,0-1.76-1.82,4.94,4.94,0,0,0-2.5-.63,5,5,0,0,0-2.52.63,4.59,4.59,0,0,0-1.78,1.82,5.73,5.73,0,0,0-.67,2.88,5.89,5.89,0,0,0,.67,2.88,4.54,4.54,0,0,0,1.78,1.85A4.94,4.94,0,0,0,202.14,489.21Z"/><path class="cls-1" d="M227.13,493.53v-25.2H233v25.2Z"/><path class="cls-1" d="M250.31,473.88a9,9,0,0,1,4.12.91,6.68,6.68,0,0,1,2.86,2.81,9.91,9.91,0,0,1,1,4.84v11.09h-5.62V483.31a5,5,0,0,0-1-3.46,3.78,3.78,0,0,0-2.9-1.11,5,5,0,0,0-2.4.57,4.07,4.07,0,0,0-1.65,1.69,6.27,6.27,0,0,0-.6,3v9.57h-5.61V474.16h5.36v5.37l-1-1.62a7.18,7.18,0,0,1,3-3A9.17,9.17,0,0,1,250.31,473.88Z"/><path class="cls-1" d="M261.11,478.92V474.6h13.43v4.32Zm3,14.61v-19.8a7.1,7.1,0,0,1,1.94-5.25,7.5,7.5,0,0,1,5.54-2,11.33,11.33,0,0,1,2.34.25,6,6,0,0,1,1.95.76l-1.48,4.1a4,4,0,0,0-1-.5,4.11,4.11,0,0,0-1.23-.18,2.52,2.52,0,0,0-1.88.68,3,3,0,0,0-.67,2.16v1.8l.18,2.38v15.55Z"/><path class="cls-1" d="M286.27,493.82a11.2,11.2,0,0,1-5.45-1.3,9.84,9.84,0,0,1,0-17.37,11.42,11.42,0,0,1,5.45-1.27,11.6,11.6,0,0,1,5.51,1.27,9.61,9.61,0,0,1,3.78,3.53,9.8,9.8,0,0,1-3.78,13.84A11.38,11.38,0,0,1,286.27,493.82Zm0-4.61a5,5,0,0,0,2.54-.63,4.72,4.72,0,0,0,1.77-1.85,6,6,0,0,0,.66-2.88,5.84,5.84,0,0,0-.66-2.88,4.77,4.77,0,0,0-1.77-1.82,4.91,4.91,0,0,0-2.5-.63,5,5,0,0,0-2.52.63A4.59,4.59,0,0,0,282,481a5.73,5.73,0,0,0-.67,2.88,5.89,5.89,0,0,0,.67,2.88,4.54,4.54,0,0,0,1.78,1.85A4.94,4.94,0,0,0,286.27,489.21Z"/><path class="cls-1" d="M300.67,493.53V474.16H306v5.51l-.76-1.62a6.24,6.24,0,0,1,2.77-3.11,9.43,9.43,0,0,1,4.65-1.06v5.22a5.22,5.22,0,0,0-.63-.11,4.12,4.12,0,0,0-.6,0,5.31,5.31,0,0,0-3.78,1.33,5.45,5.45,0,0,0-1.4,4.11v9.14Z"/><path class="cls-1" d="M340.85,473.88a8.86,8.86,0,0,1,4.09.91,6.64,6.64,0,0,1,2.79,2.81,10.29,10.29,0,0,1,1,4.84v11.09h-5.61V483.31a5.24,5.24,0,0,0-1-3.46,3.34,3.34,0,0,0-2.68-1.11,4.42,4.42,0,0,0-2.23.55,3.73,3.73,0,0,0-1.5,1.66,6.83,6.83,0,0,0-.52,2.86v9.72h-5.61V483.31a5.24,5.24,0,0,0-1-3.46,3.42,3.42,0,0,0-2.75-1.11,4.36,4.36,0,0,0-2.2.55A3.87,3.87,0,0,0,322.2,481a6.51,6.51,0,0,0-.54,2.86v9.72H316V474.16h5.37v5.26l-1-1.51a6.75,6.75,0,0,1,2.85-3,8.63,8.63,0,0,1,4.21-1,8.24,8.24,0,0,1,4.68,1.35,6.49,6.49,0,0,1,2.66,4.12l-2-.54a7.9,7.9,0,0,1,3.1-3.58A9,9,0,0,1,340.85,473.88Z"/><path class="cls-1" d="M359.79,493.82a9,9,0,0,1-3.86-.77,6.06,6.06,0,0,1-2.5-2.11,5.27,5.27,0,0,1-.88-3,5.09,5.09,0,0,1,3.53-5,13.41,13.41,0,0,1,4.82-.72H366v3.24h-4.53a4.24,4.24,0,0,0-2.72.65,2.07,2.07,0,0,0-.74,1.62,2,2,0,0,0,.85,1.71,3.72,3.72,0,0,0,2.28.63,5.15,5.15,0,0,0,2.58-.65,3.54,3.54,0,0,0,1.6-2l.86,2.63a5.1,5.1,0,0,1-2.23,2.79A7.9,7.9,0,0,1,359.79,493.82Zm5.9-.29v-3.78l-.36-.83v-6.76a3.63,3.63,0,0,0-1.1-2.81,4.84,4.84,0,0,0-3.36-1,9.64,9.64,0,0,0-3.05.49,8.52,8.52,0,0,0-2.57,1.31l-2-3.92a11.44,11.44,0,0,1,3.81-1.75,17.41,17.41,0,0,1,4.54-.59A10.32,10.32,0,0,1,368.5,476q2.44,2.1,2.44,6.52v11Z"/><path class="cls-1" d="M385.52,493.82a11.81,11.81,0,0,1-5.56-1.28,10,10,0,0,1-3.81-13.84,9.84,9.84,0,0,1,3.81-3.53,11.7,11.7,0,0,1,5.56-1.29,10.8,10.8,0,0,1,5.35,1.27,7.46,7.46,0,0,1,3.29,3.62l-4.32,2.38a5.18,5.18,0,0,0-1.9-2,4.91,4.91,0,0,0-2.45-.63,5.25,5.25,0,0,0-2.56.63A4.64,4.64,0,0,0,381.1,481a5.63,5.63,0,0,0-.69,2.88,5.76,5.76,0,0,0,.69,2.9,4.6,4.6,0,0,0,1.83,1.83,5.25,5.25,0,0,0,2.56.63,4.91,4.91,0,0,0,2.45-.63,5.14,5.14,0,0,0,1.9-2l4.32,2.37a7.5,7.5,0,0,1-3.29,3.6A10.6,10.6,0,0,1,385.52,493.82Z"/><path class="cls-1" d="M400.1,471.46a3.61,3.61,0,0,1-2.55-.9,3,3,0,0,1,0-4.46,3.61,3.61,0,0,1,2.55-.9,3.73,3.73,0,0,1,2.54.85,2.72,2.72,0,0,1,1,2.17,3.07,3.07,0,0,1-1,2.33A3.58,3.58,0,0,1,400.1,471.46Zm-2.8,22.07V474.16h5.61v19.37Z"/><path class="cls-1" d="M417.31,493.82a11.17,11.17,0,0,1-5.45-1.3,9.84,9.84,0,0,1,0-17.37,11.39,11.39,0,0,1,5.45-1.27,11.6,11.6,0,0,1,5.51,1.27,9.61,9.61,0,0,1,3.78,3.53,9.8,9.8,0,0,1-3.78,13.84A11.38,11.38,0,0,1,417.31,493.82Zm0-4.61a5,5,0,0,0,2.54-.63,4.63,4.63,0,0,0,1.76-1.85,5.89,5.89,0,0,0,.67-2.88,5.73,5.73,0,0,0-.67-2.88,4.67,4.67,0,0,0-1.76-1.82,4.94,4.94,0,0,0-2.5-.63,5,5,0,0,0-2.52.63,4.59,4.59,0,0,0-1.78,1.82,5.73,5.73,0,0,0-.67,2.88,5.89,5.89,0,0,0,.67,2.88,4.54,4.54,0,0,0,1.78,1.85A4.94,4.94,0,0,0,417.31,489.21ZM414,471.68l4.86-5.18h6l-6.48,5.18Z"/><path class="cls-1" d="M443.48,473.88a9.09,9.09,0,0,1,4.13.91,6.73,6.73,0,0,1,2.86,2.81,10,10,0,0,1,1,4.84v11.09H445.9V483.31a5,5,0,0,0-1-3.46,3.75,3.75,0,0,0-2.9-1.11,5,5,0,0,0-2.39.57,4.1,4.1,0,0,0-1.66,1.69,6.4,6.4,0,0,0-.59,3v9.57h-5.62V474.16h5.37v5.37l-1-1.62a7.13,7.13,0,0,1,3-3A9.13,9.13,0,0,1,443.48,473.88Z"/><path class="cls-1" d="M458.71,493.82a3.4,3.4,0,0,1-2.46-1,3.3,3.3,0,0,1-1-2.5,3.35,3.35,0,0,1,1-2.56,3.48,3.48,0,0,1,5.95,2.56,3.35,3.35,0,0,1-1,2.5A3.42,3.42,0,0,1,458.71,493.82Z"/><path class="cls-1" d="M468.14,493.82a3.4,3.4,0,0,1-2.46-1,3.3,3.3,0,0,1-1-2.5,3.35,3.35,0,0,1,1-2.56,3.49,3.49,0,0,1,6,2.56,3.36,3.36,0,0,1-1,2.5A3.41,3.41,0,0,1,468.14,493.82Z"/><path class="cls-1" d="M477.58,493.82a3.43,3.43,0,0,1-2.47-1,3.34,3.34,0,0,1-1-2.5,3.38,3.38,0,0,1,1-2.56,3.64,3.64,0,0,1,4.95,0,3.4,3.4,0,0,1,1,2.56,3.36,3.36,0,0,1-1,2.5A3.4,3.4,0,0,1,477.58,493.82Z"/><rect class="cls-2" x="1.5" y="1.5" width="508.67" height="295.45" rx="25"/><path class="cls-3" d="M485.17,298.45H26.5A26.53,26.53,0,0,1,0,272V26.5A26.53,26.53,0,0,1,26.5,0H485.17a26.53,26.53,0,0,1,26.5,26.5V272A26.53,26.53,0,0,1,485.17,298.45ZM26.5,3A23.52,23.52,0,0,0,3,26.5V272a23.52,23.52,0,0,0,23.5,23.5H485.17a23.52,23.52,0,0,0,23.5-23.5V26.5A23.52,23.52,0,0,0,485.17,3Z"/><rect class="cls-4" x="31.65" y="21.55" width="146.98" height="127.67" rx="25"/><path class="cls-3" d="M105.14,92.39a56.82,56.82,0,0,0-56.8,55.41,24.88,24.88,0,0,0,8.31,1.42h97a24.83,24.83,0,0,0,8.31-1.42A56.82,56.82,0,0,0,105.14,92.39Z"/><circle class="cls-3" cx="105.14" cy="60.36" r="27.78"/><path class="cls-4" d="M412.55,48.62H206.18a8,8,0,0,1,0-16H412.55a8,8,0,0,1,0,16Z"/><path class="cls-4" d="M468.49,83H206.18a8,8,0,0,1,0-16H468.49a8,8,0,0,1,0,16Z"/><path class="cls-4" d="M429.51,126.59H206.18a8,8,0,0,1,0-16H429.51a8,8,0,0,1,0,16Z"/><path class="cls-4" d="M468.49,185.75H33.74a8,8,0,0,1,0-16H468.49a8,8,0,0,1,0,16Z"/><path class="cls-4" d="M396,221.06H33.74a8,8,0,0,1,0-16H396a8,8,0,0,1,0,16Z"/><path class="cls-4" d="M458,256.37H33.74a8,8,0,0,1,0-16H458a8,8,0,0,1,0,16Z"/><path class="cls-5" d="M229.58,220.61a9,9,0,0,1-6.36-2.63L151,145.71A9,9,0,0,1,163.68,133l65.9,65.91L348,80.47A9,9,0,0,1,360.72,93.2L236,218A9,9,0,0,1,229.58,220.61Z"/></g></g></svg>