<svg xmlns="http://www.w3.org/2000/svg" viewBox="0 0 511.67 485.11"><defs><style>.cls-1{fill:#fccdcd;}.cls-2{fill:#5e5e5e;}.cls-3{fill:#fce8e8;}.cls-4{fill:none;stroke:#cc4848;stroke-linecap:round;stroke-miterlimit:10;stroke-width:18px;}</style></defs><g id="Capa_2" data-name="Capa 2"><g id="Capa_2-2" data-name="Capa 2"><rect class="cls-1" x="1.5" y="1.5" width="508.67" height="295.45" rx="25"/><path class="cls-2" d="M491.27,298.45H32.6A26.53,26.53,0,0,1,6.1,272V26.5A26.53,26.53,0,0,1,32.6,0H491.27a26.53,26.53,0,0,1,26.5,26.5V272A26.53,26.53,0,0,1,491.27,298.45ZM32.6,3A23.52,23.52,0,0,0,9.1,26.5V272a23.52,23.52,0,0,0,23.5,23.5H491.27a23.52,23.52,0,0,0,23.5-23.5V26.5A23.52,23.52,0,0,0,491.27,3Z" transform="translate(-6.1)"/><path class="cls-3" d="M159.73,23.31c-2.42,0-2.42-1.3-4.85-1.3s-2.42,1.66-4.84,1.66-2.43.21-4.85.21-2.43-4.41-4.85-4.41-2.42-1.39-4.85-1.39-2.42,4.46-4.84,4.46-2.43-1.12-4.85-1.12-2.43,3.15-4.85,3.15-2.42.05-4.85.05-2.42-3.13-4.84-3.13-2.43,2.79-4.85,2.79-2.42-3.83-4.85-3.83-2.42,4.9-4.85,4.9-2.42-1.89-4.85-1.89S89.44,19.65,87,19.65s-2.42,3.83-4.84,3.83-2.43.78-4.85.78-2.43-1.1-4.86-1.1S70,21.37,67.61,21.37,65.18,19,62.75,19c-1.67,0-3.43,2.11-5,2.42S55.53,24.9,54,25.52s-2.19,1.78-3.55,2.68-5.73-1.95-6.89-.79-3.79,1.84-4.7,3.2,2.2,5.19,1.57,6.71.34,3.18,0,4.8.82,2.76.82,4.43c0,2.43.28,2.43.28,4.85s-1.29,2.43-1.29,4.86.21,2.43.21,4.85S36.64,63.54,36.64,66,41,68.39,41,70.81s-4,2.43-4,4.86.62,2.42.62,4.85-3.51,2.42-3.51,4.85,5.75,2.43,5.75,4.86-3.71,2.42-3.71,4.85,4.42,2.43,4.42,4.86-6.17,2.42-6.17,4.85,1.65,2.43,1.65,4.85-1.62,2.43-1.62,4.86,1.62,2.43,1.62,4.86-2.22,2.43-2.22,4.87c0,1.66,6.77,2.76,7.08,4.34s-2.2,3.86-1.58,5.35.87,3.41,1.77,4.76,2.49,2.38,3.65,3.54,3.52.71,4.89,1.62,1.8,3.35,3.33,4,4-2.95,5.6-2.63,2.5,3,4.17,3c2.42,0,2.42,2.67,4.85,2.67s2.42-4.33,4.84-4.33S74.87,153,77.29,153s2.42-5.7,4.85-5.7,2.42,5.22,4.85,5.22,2.42-.17,4.84-.17,2.43-6.42,4.85-6.42,2.43,5.6,4.85,5.6,2.42-5.39,4.84-5.39,2.43-.6,4.85-.6,2.43,3.15,4.85,3.15,2.42-2.16,4.85-2.16,2.42,2.25,4.85,2.25,2.42-2.68,4.84-2.68,2.43,2.75,4.85,2.75,2.43-3.44,4.85-3.44,2.43,4.85,4.85,4.85,2.43,2,4.86,2,2.42-2.32,4.85-2.32,2.43-1.54,4.86-1.54c1.67,0,3.72,2.86,5.3,2.55s4.3.73,5.79.11,3.32-2.28,4.67-3.19.54-5,1.7-6.12,3-1.84,3.88-3.21,2.63-2.54,3.26-4.06-3.58-4.32-3.26-5.95,3.6-2.58,3.6-4.24c0-2.43,3.21-2.43,3.21-4.86S184,117,184,114.52s4-2.43,4-4.85-3.64-2.43-3.64-4.86,3.13-2.42,3.13-4.85.07-2.42.07-4.85.41-2.43.41-4.85-1.29-2.43-1.29-4.85-1.4-2.43-1.4-4.86.76-2.43.76-4.85-2.61-2.43-2.61-4.86,1.89-2.42,1.89-4.85.66-2.43.66-4.86,1.07-2.42,1.07-4.85-.11-2.43-.11-4.87-3.41-2.43-3.41-4.86a23.15,23.15,0,0,0-.34-4.67c-.32-1.63,2.86-4.5,2.24-6a31.17,31.17,0,0,0-2.66-4.76c-.92-1.36-3-2.35-4.15-3.51s-2.31-3-3.67-3.91a30.4,30.4,0,0,0-4.72-2.59c-1.5-.62-4.51,3.63-6.14,3.31S161.4,23.31,159.73,23.31Z" transform="translate(-6.1)"/><path class="cls-2" d="M111.24,92.59c-1.64,0-3.1,1.81-4.71,2s-3.54-2.35-5.14-2.08-3.38.21-4.94.62-3.85-.77-5.37-.23-.53,7.29-2,8-4.31-1.63-5.72-.83-1.51,3.5-2.85,4.42-3.25.82-4.51,1.85-5.24-.87-6.4.27,1,5.42-.12,6.65-1.45,2.79-2.4,4.1-1.26,2.8-2.1,4.2-3.13,1.8-3.84,3.27-4.59,1.6-5.17,3.13-1.15,3.26-1.61,4.83.64,3.63.33,5.24-1.29,3.19-1.47,4.82.82,3.66.78,5.3c1.32.47,3.74-3,5.15-2.78s2.16,6.14,3.6,6.14c2.42,0,2.42-2.52,4.85-2.52s2.42,1.81,4.84,1.81,2.43,1.89,4.85,1.89,2.42-3.2,4.85-3.2,2.42-3.7,4.85-3.7,2.42,4.78,4.84,4.78,2.43.56,4.85.56,2.43.49,4.85.49,2.42-.12,4.84-.12,2.43-1.15,4.85-1.15,2.43-.69,4.85-.69,2.42-4.2,4.85-4.2,2.42,7.53,4.85,7.53,2.42-7.52,4.84-7.52,2.43,5.51,4.85,5.51,2.43-2.64,4.85-2.64,2.43-2.8,4.85-2.8,2.43,5.69,4.86,5.69,2.42,0,4.85,0,2.43.83,4.86.83c1.44,0,2.77-3.33,4.15-3.57s5.82,1.62,7.14,1.15c0-1.64-1.29-5.27-1.46-6.88s.12-3.51-.19-5.09-3.33-2.65-3.79-4.2-.4-3.31-1-4.82-1.14-3.1-1.85-4.56-4.36-1.23-5.2-2.62,2.68-5.65,1.73-7-3.7-1.37-4.77-2.6-4.65.08-5.82-1.06.42-5.19-.84-6.22-.9-4.57-2.24-5.49-6.14,3.56-7.55,2.75-1.09-4.91-2.57-5.59-4,1.24-5.56.69-2.41-3.11-4-3.53-3.76,2.33-5.37,2-2.58-5.53-4.22-5.67S112.88,92.59,111.24,92.59Z" transform="translate(-6.1)"/><path class="cls-2" d="M138.2,60.36c0,1.65,2.73,3.62,2.46,5.19s-4.22,2.28-4.76,3.79,1.31,4.16.51,5.55-5.36,0-6.4,1.22a28.58,28.58,0,0,1-6.33,5.81c-1.39.81-.08,7.64-1.61,8.2s-4.85-5.31-6.47-5-2.71,1.84-4.36,1.84-2.88-1.1-4.45-1.37-4.23,3.32-5.73,2.77-.39-6.45-1.78-7.25S92.22,85.53,91,84.49a35.35,35.35,0,0,1-3.53-4.17c-1-1.24-1.73-3.36-2.54-4.76s1.64-4.49,1.09-6,1.56-3.34,1.28-5S80.84,62,80.84,60.36a34,34,0,0,1,.41-5.28c.28-1.62,4.93-2.14,5.48-3.64s3-1.66,3.76-3-2.64-5.55-1.6-6.79,1.94-3.05,3.18-4.09,3.77-.57,5.18-1.39,2.29-3.15,3.82-3.7,3.86,1.61,5.48,1.33a27.3,27.3,0,0,1,4.69,0c1.65,0,2.74,1.9,4.3,2.17s4.93-5.66,6.44-5.11,1.89,4.41,3.28,5.21,4.21.06,5.44,1.09,1.75,3.29,2.79,4.53-1.44,4.79-.63,6.19,5.5.88,6.06,2.41,1.69,3.23,2,4.84S138.2,58.72,138.2,60.36Z" transform="translate(-6.1)"/><path class="cls-3" d="M418.64,47.12c-2.4,0-2.4,3.37-4.8,3.37s-2.39,1.17-4.79,1.17-2.4,1-4.8,1-2.4-2.29-4.8-2.29-2.39,2.3-4.79,2.3-2.4-6-4.8-6-2.39,5.58-4.79,5.58-2.4-3.07-4.79-3.07-2.4,3.22-4.8,3.22-2.4-6.19-4.8-6.19-2.4,1-4.79,1-2.4,1.26-4.8,1.26-2.4-2.56-4.8-2.56-2.4,2.77-4.8,2.77-2.4,2.89-4.79,2.89-2.4.52-4.8.52-2.4-6.87-4.8-6.87-2.4,6.2-4.8,6.2-2.4-2.46-4.79-2.46-2.4-1.05-4.8-1.05-2.4,4.1-4.8,4.1-2.4-3.44-4.8-3.44-2.4-2.18-4.8-2.18-2.4,4.44-4.8,4.44-2.4.78-4.8.78-2.4-4.27-4.8-4.27-2.4,1.7-4.8,1.7-2.4-2.36-4.8-2.36-2.4,2.46-4.8,2.46-2.4,2.64-4.8,2.64-2.4-.9-4.8-.9-2.4,0-4.8,0-2.4,1.68-4.8,1.68-2.4-6.5-4.8-6.5-2.4,6.49-4.8,6.49-2.4-.29-4.8-.29-2.4-4.24-4.81-4.24-2.4-2.65-4.8-2.65-2.4,4.22-4.8,4.22-2.4-1.17-4.8-1.17-2.4.62-4.81.62S219.49,47,217.08,47s-2.4,3.45-4.81,3.45c-1.45,0-1.7-4.17-2.88-4.85s-2.87,0-3.57-1.27,1-2.27,1-3.72-5-4.51-4.35-5.68a16.09,16.09,0,0,1,4.15-4.16c1.18-.68,4.23,1.43,5.68,1.43,2.4,0,2.4-1.59,4.8-1.59s2.4,5,4.8,5,2.4-2.27,4.8-2.27,2.39.23,4.79.23,2.4,1.17,4.8,1.17,2.39-2.25,4.79-2.25,2.4-.71,4.79-.71,2.4-2.41,4.8-2.41,2.4,4.81,4.8,4.81,2.4-2.72,4.8-2.72,2.39,3.15,4.79,3.15,2.4-2.71,4.8-2.71,2.39,1.36,4.79,1.36,2.4-3.52,4.8-3.52,2.4,4.82,4.8,4.82,2.4-5.53,4.8-5.53,2.4,4.63,4.79,4.63,2.4.1,4.8.1S301,29,303.41,29s2.4,4.18,4.8,4.18,2.4-.9,4.8-.9,2.4-2.1,4.8-2.1,2.4,6.37,4.8,6.37,2.4-6,4.8-6,2.4-1.57,4.8-1.57,2.4.25,4.8.25,2.4,4.93,4.8,4.93,2.4-.32,4.8-.32,2.4-1.56,4.8-1.56,2.4-3.09,4.8-3.09,2.4,3,4.8,3,2.4,4.44,4.8,4.44,2.4-6.2,4.8-6.2,2.4,4.18,4.8,4.18,2.4-5.42,4.8-5.42,2.4,3.22,4.8,3.22,2.4,3.11,4.8,3.11,2.4-2.63,4.8-2.63,2.41-.1,4.81-.1,2.4.56,4.8.56,2.4-.36,4.8-.36,2.41-2.42,4.81-2.42,2.41.81,4.81.81c1.46,0,1.71,3.61,2.88,4.29s4.33-.79,5,.43,3.49,3.11,3.49,4.57-2.54,3.54-3.22,4.72-1.36,4.29-2.57,5S420.1,47.12,418.64,47.12Z" transform="translate(-6.1)"/><path class="cls-3" d="M474.59,83.33c-2.38,0-2.38-1.38-4.76-1.38s-2.39-1.88-4.77-1.88-2.39,5.82-4.77,5.82-2.39-3-4.77-3S453.14,84,450.75,84s-2.38.53-4.76.53-2.39-3.26-4.77-3.26-2.39-1.41-4.77-1.41-2.39,2.42-4.77,2.42-2.38,1-4.77,1-2.38-.54-4.77-.54S419.76,81,417.37,81s-2.38,3-4.76,3-2.39-2.25-4.77-2.25-2.39.81-4.77.81-2.38,2.88-4.77,2.88-2.38-4.92-4.76-4.92-2.38,3.64-4.77,3.64-2.38,1.41-4.76,1.41-2.38.68-4.77.68-2.38-6.58-4.76-6.58-2.39,2.75-4.77,2.75-2.39,4.47-4.77,4.47-2.38-1.85-4.76-1.85-2.39,1-4.77,1-2.39-1.8-4.77-1.8-2.39-1.79-4.77-1.79-2.38.19-4.77.19-2.38-.72-4.76-.72-2.39,5-4.77,5-2.39-.89-4.77-.89-2.39-2.53-4.77-2.53-2.39-1.25-4.77-1.25-2.39,3.58-4.77,3.58-2.39-1.27-4.77-1.27-2.39-.36-4.77-.36-2.39,1-4.77,1-2.39-3.6-4.77-3.6-2.39,1.22-4.77,1.22-2.39,1.56-4.77,1.56-2.39,2.37-4.77,2.37-2.39-.52-4.78-.52-2.38-5.41-4.77-5.41-2.38,1.42-4.77,1.42-2.38,3.58-4.77,3.58-2.38-1-4.77-1-2.38-5.36-4.77-5.36-2.38,5.75-4.77,5.75S243.31,80,240.93,80s-2.39.26-4.78.26-2.38,4.52-4.77,4.52-2.38-3.54-4.77-3.54-2.39.27-4.78.27-2.39.77-4.78.77-2.39-3-4.78-3c-1.45,0-2.35,2.51-3.53,1.82s-2.93-.76-3.63-2,2.1-2.67,2.1-4.13-2.35-2.71-1.67-3.89,3.12.42,4.33-.28.95-4.26,2.4-4.26H217c2.38,0,2.38-2.28,4.77-2.28s2.38,2.36,4.77,2.36,2.38,1.51,4.77,1.51,2.38,1.61,4.76,1.61,2.39-3.22,4.77-3.22,2.38-1.67,4.77-1.67,2.38-1.07,4.77-1.07,2.38,3.41,4.77,3.41,2.38,1.31,4.76,1.31,2.39-2.62,4.77-2.62,2.39,3.54,4.77,3.54,2.39,1.39,4.77,1.39,2.38-4.34,4.77-4.34,2.38,4,4.76,4,2.39-2.24,4.77-2.24,2.39-4.15,4.77-4.15,2.38.39,4.76.39,2.38,4,4.77,4,2.38-3.37,4.76-3.37S310,64,312.39,64s2.38-1,4.77-1,2.38,2.3,4.76,2.3S324.31,63,326.69,63s2.38,6,4.77,6,2.38-5.58,4.77-5.58,2.38,3.06,4.77,3.06,2.38-3.21,4.76-3.21,2.39,6.18,4.77,6.18,2.39-.94,4.77-.94,2.38-1.27,4.77-1.27,2.38,2.56,4.77,2.56,2.38-2.76,4.77-2.76,2.38-2.9,4.77-2.9,2.38-.51,4.77-.51,2.38,6.86,4.77,6.86,2.38-6.19,4.77-6.19,2.38,2.46,4.77,2.46,2.38,1,4.77,1,2.38-4.1,4.77-4.1,2.38,3.44,4.77,3.44,2.39,2.17,4.77,2.17,2.39-4.44,4.77-4.44,2.39-.78,4.77-.78,2.39,4.28,4.77,4.28,2.39-1.71,4.77-1.71,2.39,2.36,4.77,2.36,2.39-2.45,4.78-2.45S443.55,64,445.94,64s2.39.9,4.77.9,2.39,0,4.77,0,2.39-1.67,4.78-1.67,2.38,6.5,4.77,6.5,2.39-6.49,4.78-6.49,2.39.28,4.78.28c1.46,0,2.45,4.54,3.63,5.22s-.34,2.76.37,4,4.83.84,4.83,2.3-1.52,2.65-2.2,3.83-1.28,2.63-2.49,3.34A8.56,8.56,0,0,1,474.59,83.33Z" transform="translate(-6.1)"/><path class="cls-3" d="M435.61,126.87c-2.37,0-2.37-1.06-4.75-1.06s-2.37.37-4.75.37-2.37-1.57-4.75-1.57-2.37,4.26-4.75,4.26-2.38-5.61-4.75-5.61-2.38,2.76-4.75,2.76-2.38-1.23-4.75-1.23-2.38-.17-4.75-.17-2.38,4.6-4.75,4.6-2.37-6.11-4.75-6.11-2.37,6.11-4.74,6.11S381,124,378.62,124s-2.37,3.2-4.75,3.2-2.38,3.19-4.75,3.19-2.37-.4-4.75-.4-2.37-4.73-4.75-4.73-2.37-.09-4.75-.09-2.37,3.28-4.75,3.28-2.37-2.53-4.75-2.53-2.37-2.53-4.75-2.53-2.37,0-4.75,0-2.37.46-4.75.46-2.38,2-4.75,2-2.38-2.19-4.75-2.19-2.38-.89-4.75-.89-2.38,7.26-4.75,7.26-2.38-4.51-4.76-4.51-2.37-.74-4.75-.74-2.38,1.55-4.75,1.55-2.38-.14-4.75-.14-2.38-1.3-4.76-1.3-2.37,3.8-4.75,3.8-2.38-.65-4.75-.65-2.38-4.59-4.76-4.59-2.38,2.14-4.75,2.14-2.38-1.61-4.75-1.61-2.38,4.57-4.76,4.57-2.37.45-4.75.45-2.37-2.27-4.75-2.27S248,124,245.58,124s-2.38,1.2-4.76,1.2-2.38,5-4.76,5-2.37-6.3-4.75-6.3-2.38,4.48-4.75,4.48-2.38-4.39-4.76-4.39-2.38,6-4.76,6-2.39-.47-4.77-.47c-1.45,0-2.68-3.68-3.85-4.36s-2.91-1.16-3.61-2.37-3.27-2.86-3.27-4.31a14.54,14.54,0,0,1,1.3-5.45c.71-1.21,5.61,1.62,6.82.92s1.16-6.41,2.61-6.41c2.38,0,2.38.07,4.75.07s2.38,5.58,4.75,5.58,2.38.8,4.75.8,2.38-2.87,4.76-2.87,2.37,2,4.75,2,2.37-4.57,4.75-4.57,2.37.09,4.75.09,2.37-.68,4.75-.68,2.37,4.09,4.74,4.09,2.38-4,4.75-4,2.37,3.85,4.75,3.85,2.37-3.93,4.74-3.93,2.38,5.33,4.76,5.33,2.37-6.43,4.75-6.43,2.37-.07,4.74-.07,2.38.49,4.75.49,2.38,3,4.75,3,2.38,1.38,4.75,1.38,2.38,1.87,4.75,1.87,2.38-5.81,4.75-5.81,2.38,3,4.75,3,2.38-1.08,4.76-1.08,2.37-.53,4.75-.53,2.37,3.26,4.75,3.26,2.37,1.4,4.75,1.4,2.37-2.41,4.75-2.41,2.38-1,4.75-1,2.38.54,4.75.54,2.38,1.7,4.76,1.7,2.37-3,4.75-3,2.38,2.25,4.75,2.25,2.38-.81,4.76-.81,2.37-2.88,4.75-2.88,2.38,4.92,4.75,4.92,2.38-3.63,4.76-3.63,2.37-1.41,4.75-1.41,2.37-.69,4.75-.69,2.38,6.58,4.75,6.58,2.38-2.75,4.75-2.75,2.38-4.46,4.76-4.46,2.38,1.85,4.76,1.85,2.37-1,4.75-1,2.38,1.8,4.75,1.8,2.38,1.8,4.76,1.8,2.38-.2,4.76-.2,2.38.73,4.76.73,2.38-5,4.76-5c1.46,0,4.37,1.69,5.55,2.37s1.15,4.11,1.86,5.32-.1,2.82-.1,4.28,2.8,4.26,2.12,5.44-3.41,2.18-4.62,2.88S437.07,126.87,435.61,126.87Z" transform="translate(-6.1)"/><path class="cls-3" d="M474.59,181.79c-2.39,0-2.39,1.56-4.77,1.56s-2.39,2.25-4.78,2.25-2.39-.76-4.78-.76-2.38,1.33-4.77,1.33-2.39-3.68-4.78-3.68-2.38,3.4-4.77,3.4-2.39-3.65-4.78-3.65-2.38,5.46-4.77,5.46-2.39-2-4.77-2-2.39-1.63-4.78-1.63-2.39.5-4.77.5-2.39,2.19-4.78,2.19-2.39-3.4-4.78-3.4-2.39.52-4.77.52-2.39,4.88-4.78,4.88-2.39-3.94-4.77-3.94-2.39.07-4.78.07-2.38,3.54-4.77,3.54-2.39.38-4.78.38-2.39-.46-4.77-.46-2.39-4.7-4.78-4.7-2.39,1.92-4.78,1.92-2.39,2.57-4.77,2.57-2.39-2.43-4.78-2.43-2.39,1.42-4.77,1.42-2.39-2.47-4.78-2.47-2.39,1.7-4.78,1.7-2.39-4.24-4.77-4.24-2.39,1.62-4.78,1.62-2.39-1-4.78-1-2.39,7-4.77,7-2.39-1.14-4.78-1.14-2.39-3.48-4.78-3.48-2.38-3-4.77-3-2.39,4.21-4.78,4.21-2.39-1.29-4.78-1.29-2.39-1.56-4.77-1.56-2.39,2.79-4.78,2.79-2.39-3-4.78-3-2.39,2.7-4.78,2.7-2.38,1.2-4.77,1.2-2.39-3.72-4.78-3.72-2.39,0-4.78,0-2.38,5.54-4.77,5.54-2.39.69-4.78.69-2.39-.76-4.78-.76-2.39-6.21-4.78-6.21-2.38-.36-4.77-.36-2.39,5.06-4.78,5.06-2.39.44-4.78.44-2.39-3.07-4.78-3.07-2.38-1.33-4.77-1.33-2.39,5.7-4.78,5.7-2.38-4.28-4.77-4.28-2.39,2.53-4.77,2.53-2.39,1.88-4.78,1.88-2.39-.22-4.78-.22-2.38-2-4.77-2-2.39-2.21-4.78-2.21-2.39,1.56-4.77,1.56-2.39-4.39-4.78-4.39-2.39.05-4.78.05-2.39,5.66-4.78,5.66-2.38,1.15-4.77,1.15-2.39-4.45-4.78-4.45-2.39,1.71-4.78,1.71S157,186,154.58,186s-2.38,2.66-4.77,2.66-2.39-.27-4.78-.27-2.39-4.64-4.78-4.64-2.39.23-4.78.23-2.39,2.6-4.78,2.6-2.39,1.37-4.78,1.37-2.39-2.19-4.78-2.19-2.39-1.51-4.78-1.51-2.39,3.26-4.78,3.26-2.39.88-4.78.88-2.39-1-4.78-1-2.39-.69-4.78-.69-2.39-1.38-4.78-1.38-2.39,1.51-4.78,1.51-2.39,2.51-4.78,2.51-2.39-6.2-4.78-6.2-2.39,5.38-4.78,5.38-2.39-2.16-4.78-2.16-2.39-2.71-4.78-2.71S61.38,189,59,189s-2.39-5.23-4.79-5.23-2.39-.16-4.78-.16-2.4,3-4.79,3-2.39,2.8-4.79,2.8c-1.46,0-2.45-4.71-3.63-5.39a6.43,6.43,0,0,1-2.37-2.82c-.68-1.18-5.53-2-5.53-3.46s4.67-2.39,5.35-3.57a6.31,6.31,0,0,1,2.79-2.32c1.17-.68,1.93-5.09,3.39-5.09,2.39,0,2.39,1.51,4.78,1.51s2.38-2.34,4.77-2.34S51.78,169,54.17,169s2.39-.08,4.78-.08,2.38,2,4.77,2,2.39.62,4.77.62,2.39-2.76,4.78-2.76S75.66,170,78,170s2.39,3.26,4.78,3.26,2.38-4.62,4.77-4.62,2.39,3.17,4.78,3.17S94.75,168,97.14,168s2.39-.4,4.78-.4,2.39,4.44,4.78,4.44,2.38-4.37,4.77-4.37,2.39-.46,4.78-.46,2.38.74,4.77.74,2.39-.5,4.77-.5,2.39,1.1,4.78,1.1,2.39-1.13,4.78-1.13,2.39.94,4.77.94,2.39,2.1,4.78,2.1,2.39-1.38,4.78-1.38,2.38.64,4.77.64,2.39,2,4.78,2,2.38-3,4.77-3,2.39,1.18,4.78,1.18,2.39-1.93,4.78-1.93,2.39,3.19,4.77,3.19,2.39-.42,4.78-.42,2.39-1.25,4.78-1.25,2.38,1.06,4.77,1.06,2.39-.38,4.78-.38,2.39,1.58,4.78,1.58,2.38-4.27,4.77-4.27,2.39,5.61,4.78,5.61,2.39-2.76,4.78-2.76,2.38,1.24,4.77,1.24,2.39.16,4.78.16,2.39-4.6,4.78-4.6,2.39,6.12,4.77,6.12,2.39-6.12,4.78-6.12,2.39,5.26,4.78,5.26,2.39-3.19,4.78-3.19,2.39-3.2,4.77-3.2,2.39.4,4.78.4,2.39,4.74,4.78,4.74,2.39.08,4.78.08,2.39-3.28,4.77-3.28,2.39,2.53,4.78,2.53S281,173,283.43,173s2.39,0,4.78,0,2.38-.46,4.77-.46,2.39-2,4.77-2,2.39,2.19,4.78,2.19,2.38.9,4.77.9,2.39-7.27,4.78-7.27,2.39,4.51,4.78,4.51,2.38.74,4.77.74,2.39-1.55,4.78-1.55,2.38.14,4.77.14,2.39,1.3,4.78,1.3,2.39-3.79,4.78-3.79,2.39.65,4.77.65,2.39,4.58,4.78,4.58,2.39-2.13,4.78-2.13,2.39,1.61,4.78,1.61,2.39-4.58,4.78-4.58,2.39-.45,4.78-.45,2.38,2.27,4.77,2.27,2.39,2.58,4.78,2.58,2.39-1.19,4.78-1.19,2.39-5,4.78-5,2.39,6.3,4.78,6.3,2.39-4.47,4.78-4.47,2.39,4.38,4.78,4.38,2.39-6,4.78-6,2.39.48,4.78.48,2.39,3.32,4.78,3.32,2.39-.9,4.78-.9,2.39-2.11,4.78-2.11,2.39-.16,4.78-.16,2.39,5.66,4.78,5.66,2.39-5.72,4.78-5.72,2.39.08,4.78.08,2.39,5.57,4.79,5.57,2.39.81,4.78.81,2.39-2.87,4.78-2.87,2.39,2,4.78,2,2.4-4.57,4.79-4.57,2.4.09,4.79.09c1.46,0,4.11,0,5.28.73s-.38,4.7.32,5.91,4.91,1.78,4.91,3.24-4.06,2.15-4.74,3.33.74,5.14-.47,5.84S476.05,181.79,474.59,181.79Z" transform="translate(-6.1)"/><path class="cls-3" d="M402.13,224.22c-2.41,0-2.41.14-4.82.14s-2.42-3.15-4.83-3.15-2.41-.36-4.83-.36-2.41,1-4.83,1-2.41-1.59-4.83-1.59-2.41-3-4.83-3-2.41,7.45-4.83,7.45h-4.82c-2.42,0-2.42-3.73-4.83-3.73s-2.41-1.25-4.83-1.25-2.41-1.33-4.83-1.33-2.41,3.51-4.83,3.51-2.41-1.05-4.83-1.05-2.41,2.47-4.83,2.47-2.41-1.84-4.82-1.84-2.42-3.77-4.83-3.77-2.42,7-4.83,7-2.42-4-4.83-4-2.42,1.45-4.83,1.45-2.42-1.47-4.83-1.47-2.42,4.06-4.83,4.06-2.42-6.84-4.83-6.84-2.41,1.57-4.83,1.57-2.42.28-4.83.28-2.42,3.53-4.83,3.53-2.41-3.42-4.83-3.42-2.41,2.08-4.83,2.08-2.41-2.88-4.83-2.88-2.42,4.66-4.83,4.66-2.41-2.87-4.83-2.87-2.41,3.26-4.83,3.26-2.42.13-4.83.13-2.42-2.44-4.83-2.44-2.42-.15-4.83-.15-2.42-3.49-4.83-3.49-2.41,2.05-4.83,2.05-2.41,3.75-4.83,3.75-2.41-4.05-4.82-4.05-2.42,1.92-4.83,1.92-2.41,2.81-4.83,2.81-2.41-4.5-4.83-4.5-2.41-.25-4.83-.25h-4.82c-2.42,0-2.42-2.39-4.83-2.39s-2.42.8-4.83.8-2.42,5.55-4.83,5.55-2.42.68-4.83.68-2.42-1.67-4.83-1.67-2.42-3-4.83-3-2.42-.54-4.83-.54-2.42,4.4-4.83,4.4-2.42-.51-4.83-.51-2.42-3.84-4.83-3.84-2.42,1.11-4.83,1.11-2.42,2.49-4.84,2.49-2.41-.46-4.83-.46-2.41-2.83-4.83-2.83S124.44,218,122,218s-2.42,3.61-4.84,3.61-2.41-3.33-4.83-3.33-2.42-.6-4.83-.6-2.42,5.93-4.84,5.93-2.41-6.48-4.83-6.48-2.41,6-4.83,6-2.42,1.12-4.83,1.12-2.42-1.08-4.83-1.08-2.42-1.11-4.83-1.11-2.42,1.28-4.84,1.28S71.28,225,68.87,225s-2.42-7.67-4.84-7.67-2.42,2.47-4.83,2.47-2.42,3.89-4.84,3.89-2.42-5.79-4.84-5.79-2.42,1.49-4.84,1.49-2.42.27-4.84.27c-1.46,0-1.36-1.54-2.54-2.22s-1.3-.57-2-1.78-3.16-1.16-3.16-2.62-3.15-4.7-2.47-5.88,6.19,1.79,7.4,1.08,1.31-5.21,2.77-5.21c2.41,0,2.41,4.74,4.83,4.74s2.41.07,4.82.07,2.42-4.26,4.83-4.26,2.42-2.37,4.83-2.37S61.57,208,64,208s2.42-2.23,4.83-2.23,2.42,1.32,4.83,1.32,2.41-1,4.83-1S80.88,205,83.3,205s2.41,2.47,4.82,2.47,2.42.47,4.83.47,2.42-2.52,4.83-2.52,2.42,2.79,4.83,2.79,2.42-5.74,4.83-5.74,2.42,4.27,4.83,4.27,2.41-4.24,4.83-4.24,2.41,1.54,4.83,1.54,2.41,2.36,4.83,2.36,2.41-3.74,4.83-3.74,2.41,6,4.83,6,2.41-7.42,4.83-7.42,2.41.67,4.82.67,2.42,3.8,4.83,3.8,2.42-.53,4.84-.53,2.41-.17,4.82-.17,2.42-3.09,4.83-3.09,2.42,7.09,4.83,7.09,2.42-1.57,4.83-1.57,2.42-2.25,4.83-2.25,2.42.77,4.83.77,2.42-1.34,4.83-1.34,2.42,3.68,4.84,3.68,2.41-3.4,4.83-3.4,2.41,3.66,4.83,3.66,2.41-5.46,4.82-5.46,2.42,2,4.83,2,2.42,1.64,4.83,1.64,2.41-.51,4.83-.51,2.41-2.18,4.82-2.18,2.42,3.4,4.83,3.4,2.42-.52,4.83-.52,2.42-4.89,4.83-4.89,2.41,3.94,4.83,3.94,2.41-.07,4.83-.07,2.41-3.53,4.82-3.53,2.42-.39,4.84-.39,2.41.47,4.83.47,2.41,4.7,4.82,4.7,2.42-1.92,4.83-1.92,2.42-2.57,4.84-2.57,2.41,2.43,4.83,2.43,2.41-1.43,4.83-1.43,2.41,2.48,4.83,2.48,2.41-1.7,4.83-1.7,2.42,4.23,4.83,4.23,2.42-1.61,4.83-1.61,2.42,1,4.84,1,2.41-7,4.83-7,2.41,1.14,4.83,1.14,2.42,3.49,4.83,3.49,2.42,3,4.84,3,2.41-4.22,4.83-4.22,2.42,1.29,4.83,1.29,2.42,1.57,4.83,1.57,2.42-2.79,4.84-2.79,2.41,3,4.83,3,2.41-2.69,4.83-2.69,2.42-1.2,4.83-1.2,2.42,3.71,4.84,3.71,2.42,0,4.83,0,2.42-5.55,4.84-5.55,2.41-.69,4.83-.69,2.42.76,4.84.76,2.42,6.21,4.84,6.21,2.42.37,4.84.37c1.46,0,3.63-4.46,4.81-3.78a12.3,12.3,0,0,1,3.89,3.29c.69,1.18-1.73,3.57-1.73,5s-1.4,1.64-2.08,2.82,2,6.3.79,7A15.77,15.77,0,0,1,402.13,224.22Z" transform="translate(-6.1)"/><path class="cls-3" d="M464,256.55c-2.41,0-2.41,3.72-4.81,3.72s-2.41-7.56-4.82-7.56-2.41,4.56-4.82,4.56-2.41,2.16-4.82,2.16-2.41-.78-4.81-.78-2.41-3.54-4.82-3.54h-4.82c-2.41,0-2.41,3.73-4.82,3.73s-2.41.15-4.82.15-2.41-5.75-4.82-5.75-2.41,5.13-4.81,5.13-2.41.38-4.82.38-2.41-5.5-4.82-5.5-2.41-.57-4.82-.57-2.41,4.71-4.82,4.71-2.4.69-4.81.69-2.41-2.43-4.82-2.43-2.41,1.41-4.82,1.41-2.41.28-4.82.28-2.41.18-4.82.18-2.41.83-4.82.83-2.41-2.81-4.82-2.81-2.41,2.65-4.82,2.65-2.41-5.45-4.82-5.45-2.41,2.87-4.82,2.87-2.41-2.37-4.82-2.37-2.41,6.21-4.82,6.21-2.41-3.31-4.81-3.31-2.41-2.35-4.82-2.35-2.41-.78-4.82-.78-2.41,3.79-4.82,3.79-2.41.83-4.82.83-2.41-5.15-4.82-5.15-2.41.21-4.82.21-2.41,5.25-4.82,5.25-2.41-3.48-4.82-3.48-2.41,3.45-4.82,3.45-2.41-3.83-4.82-3.83-2.41-1.14-4.82-1.14-2.41-.49-4.82-.49-2.41,5.53-4.82,5.53-2.41,2-4.82,2-2.41-5.82-4.82-5.82-2.41,2.69-4.82,2.69-2.42,3.17-4.83,3.17-2.41-4.43-4.82-4.43-2.41-2.18-4.82-2.18-2.41,5.83-4.82,5.83-2.41-2.38-4.82-2.38-2.41-2.68-4.81-2.68-2.41,4.68-4.82,4.68-2.41-4.58-4.82-4.58-2.4-.41-4.81-.41-2.41,5.85-4.82,5.85-2.41.12-4.83.12-2.4-6.75-4.81-6.75-2.41,1.8-4.82,1.8-2.41,3.63-4.82,3.63-2.41-.41-4.82-.41-2.41-2.9-4.82-2.9-2.41,4.66-4.82,4.66-2.41.15-4.82.15-2.41-6.85-4.82-6.85-2.41,4.26-4.82,4.26-2.41,2.15-4.82,2.15-2.42-.35-4.83-.35-2.41-2.56-4.82-2.56-2.41-2.92-4.82-2.92-2.41,2.92-4.82,2.92-2.41-3.84-4.83-3.84-2.41,2.6-4.82,2.6-2.41,1.31-4.82,1.31-2.41,1.53-4.82,1.53-2.42-4.92-4.83-4.92-2.41.66-4.82.66-2.41.6-4.83.6-2.41-1.13-4.81-1.13-2.42,4.09-4.83,4.09-2.41-5.21-4.82-5.21-2.41,1.66-4.82,1.66-2.41,2.89-4.83,2.89-2.41.56-4.82.56-2.42.09-4.83.09-2.41,1.63-4.82,1.63-2.41-3.68-4.83-3.68S51.92,258,49.5,258s-2.41-.85-4.83-.85-2.41.2-4.83.2c-1.46,0-4.68,1.86-5.86,1.18s2.07-6.34,1.37-7.55,0-1.13,0-2.59.12-.94.8-2.12-2.56-5.86-1.34-6.56,3.55.71,5,.71c2.41,0,2.41-2.47,4.82-2.47s2.41-.46,4.82-.46S51.89,241,54.29,241s2.41.15,4.82.15,2.41-2.9,4.82-2.9,2.41,2.86,4.81,2.86,2.41.15,4.82.15,2.41-1.44,4.82-1.44,2.41.66,4.82.66,2.41-1.34,4.82-1.34,2.41,4.29,4.82,4.29,2.41-4.29,4.82-4.29,2.41-1.07,4.82-1.07,2.4.82,4.81.82,2.41-.55,4.82-.55,2.41.28,4.82.28,2.41,1.45,4.82,1.45,2.41,3.92,4.82,3.92,2.41-1.72,4.82-1.72,2.41.24,4.82.24,2.41-5.8,4.82-5.8,2.4,4.4,4.81,4.4,2.41-2.75,4.82-2.75,2.41,4.59,4.82,4.59,2.41-1.41,4.82-1.41,2.41.91,4.82.91,2.41,1.19,4.82,1.19,2.41-1.51,4.82-1.51,2.41-3.3,4.82-3.3,2.41-1.27,4.82-1.27,2.41,2.5,4.82,2.5,2.41-2.86,4.82-2.86,2.41-.13,4.82-.13,2.41,3.15,4.82,3.15,2.41.35,4.82.35,2.41-.94,4.82-.94,2.41,1.58,4.82,1.58,2.41,3,4.82,3,2.41-7.45,4.82-7.45h4.82c2.41,0,2.41,3.74,4.82,3.74s2.41,1.24,4.82,1.24,2.41,1.33,4.82,1.33,2.41-3.5,4.82-3.5,2.41,1,4.82,1,2.41-2.47,4.82-2.47,2.41,1.84,4.82,1.84,2.41,3.77,4.82,3.77,2.41-7,4.82-7,2.41,4,4.82,4,2.41-1.45,4.81-1.45,2.41,1.47,4.82,1.47,2.41-4.06,4.82-4.06,2.41,6.84,4.82,6.84,2.41-1.57,4.82-1.57,2.41-.28,4.82-.28,2.41-3.53,4.82-3.53,2.4,3.41,4.81,3.41,2.42-2.07,4.83-2.07,2.41,2.88,4.82,2.88,2.41-4.66,4.82-4.66,2.41,2.86,4.82,2.86,2.41-3.25,4.82-3.25,2.41-.13,4.82-.13,2.41,2.44,4.82,2.44,2.41.15,4.82.15,2.41,3.49,4.82,3.49,2.41-2.05,4.83-2.05,2.41-3.75,4.82-3.75,2.41,4.05,4.82,4.05,2.41-1.92,4.82-1.92,2.41-2.81,4.83-2.81,2.41,4.5,4.82,4.5,2.41.25,4.82.25h4.83c2.41,0,2.41,2.4,4.82,2.4s2.41-.81,4.82-.81,2.41-5.54,4.82-5.54,2.41-.68,4.82-.68,2.42,1.67,4.83,1.67,2.41,3,4.82,3,2.41.54,4.83.54,2.41-4.4,4.82-4.4,2.41.51,4.83.51,2.41,3.84,4.82,3.84S452,241,454.38,241s2.42-2.49,4.83-2.49,2.42.46,4.83.46c1.46,0,2.11,3,3.29,3.7s.29,2,1,3.23,4.27,1,4.27,2.47-3.35,1.43-4,2.61-1,.69-2.22,1.4S465.5,256.55,464,256.55Z" transform="translate(-6.1)"/><path d="M150.21,404.83h22.86v7.8H140.55v-42h31.74v7.8H150.21Zm-.72-17.34h20.22v7.62H149.49Z" transform="translate(-6.1)"/><path d="M180.15,412.63V380.35h8.94v9.18l-1.26-2.7a10.37,10.37,0,0,1,4.62-5.19,15.7,15.7,0,0,1,7.74-1.77v8.7a10.5,10.5,0,0,0-1.05-.18,8.47,8.47,0,0,0-1-.06,8.78,8.78,0,0,0-6.3,2.22q-2.34,2.22-2.34,6.84v15.24Z" transform="translate(-6.1)"/><path d="M205.77,412.63V380.35h8.94v9.18l-1.26-2.7a10.37,10.37,0,0,1,4.62-5.19,15.7,15.7,0,0,1,7.74-1.77v8.7a10.5,10.5,0,0,0-1.05-.18,8.47,8.47,0,0,0-1-.06,8.78,8.78,0,0,0-6.3,2.22q-2.34,2.22-2.34,6.84v15.24Z" transform="translate(-6.1)"/><path d="M246.4,413.11a18.79,18.79,0,0,1-9.09-2.16A16.78,16.78,0,0,1,231,387.88a15.87,15.87,0,0,1,6.27-5.88,19,19,0,0,1,9.09-2.13,19.31,19.31,0,0,1,9.18,2.13,16,16,0,0,1,6.3,5.88,16.36,16.36,0,0,1-6.3,23.07A19.09,19.09,0,0,1,246.4,413.11Zm0-7.68a8.37,8.37,0,0,0,4.23-1.05,7.77,7.77,0,0,0,2.94-3.09,10,10,0,0,0,1.11-4.8,9.79,9.79,0,0,0-1.11-4.8,7.87,7.87,0,0,0-2.94-3,8.25,8.25,0,0,0-4.17-1.05,8.39,8.39,0,0,0-4.2,1.05,7.67,7.67,0,0,0-3,3,9.68,9.68,0,0,0-1.11,4.8,9.89,9.89,0,0,0,1.11,4.8,7.57,7.57,0,0,0,3,3.09A8.27,8.27,0,0,0,246.4,405.43Z" transform="translate(-6.1)"/><path d="M270.4,412.63V380.35h8.93v9.18l-1.26-2.7a10.37,10.37,0,0,1,4.62-5.19,15.72,15.72,0,0,1,7.75-1.77v8.7c-.37-.08-.72-.14-1.06-.18a8.44,8.44,0,0,0-1-.06,8.79,8.79,0,0,0-6.31,2.22q-2.34,2.22-2.34,6.84v15.24Z" transform="translate(-6.1)"/><path d="M327.09,413.11a16.4,16.4,0,0,1-8.22-2.07,15,15,0,0,1-5.76-5.79,19.32,19.32,0,0,1,0-17.52,15,15,0,0,1,5.76-5.79,16.4,16.4,0,0,1,8.22-2.07,13.88,13.88,0,0,1,7.15,1.8,11.81,11.81,0,0,1,4.73,5.46,22.53,22.53,0,0,1,1.68,9.36,23.53,23.53,0,0,1-1.62,9.36,11.35,11.35,0,0,1-4.65,5.49A14.21,14.21,0,0,1,327.09,413.11Zm1.56-7.68a8.46,8.46,0,0,0,4.21-1.05,7.68,7.68,0,0,0,3-3.09,9.89,9.89,0,0,0,1.11-4.8,9.68,9.68,0,0,0-1.11-4.8,7.78,7.78,0,0,0-3-3,8.46,8.46,0,0,0-4.21-1.05,8.27,8.27,0,0,0-4.14,1.05,7.73,7.73,0,0,0-3,3,9.68,9.68,0,0,0-1.11,4.8,9.89,9.89,0,0,0,1.11,4.8,7.64,7.64,0,0,0,3,3.09A8.27,8.27,0,0,0,328.65,405.43Zm8.52,7.2V406l.19-9.6-.61-9.54V368.11h9.36v44.52Z" transform="translate(-6.1)"/><path d="M370.77,413.11a20.6,20.6,0,0,1-9.66-2.16,15.73,15.73,0,0,1-8.7-14.46,16.8,16.8,0,0,1,2.19-8.58,15.41,15.41,0,0,1,6.12-5.91,18.27,18.27,0,0,1,8.85-2.13,17.82,17.82,0,0,1,8.55,2,15.32,15.32,0,0,1,6,5.76,17.14,17.14,0,0,1,2.22,8.94q0,.54-.06,1.23t-.12,1.29H360v-5.46h21.3l-3.66,1.62a8.54,8.54,0,0,0-1-4.38,7.45,7.45,0,0,0-2.82-2.91,8.18,8.18,0,0,0-4.2-1.05A8.35,8.35,0,0,0,365.4,388a7.33,7.33,0,0,0-2.85,2.94,9.28,9.28,0,0,0-1,4.47v1.44a8.86,8.86,0,0,0,1.2,4.68,7.92,7.92,0,0,0,3.3,3,11.16,11.16,0,0,0,5,1.05,12,12,0,0,0,4.47-.78,11,11,0,0,0,3.57-2.34l5,5.4a14.51,14.51,0,0,1-5.58,3.87A20.65,20.65,0,0,1,370.77,413.11Z" transform="translate(-6.1)"/><path d="M40.45,484.63l18.66-42h9.6l18.84,42H77.35L61.93,447.55h3.9L50.41,484.63Zm9.42-9,2.46-7.38H74.05l2.52,7.38Z" transform="translate(-6.1)"/><path d="M104.29,485.11a15.89,15.89,0,0,1-7.2-1.56,11,11,0,0,1-4.86-4.8,17.12,17.12,0,0,1-1.74-8.16V452.35h9.36v16.8q0,4.08,1.71,6a6.18,6.18,0,0,0,4.83,1.89,7.6,7.6,0,0,0,3.84-1,6.86,6.86,0,0,0,2.67-2.88,10.41,10.41,0,0,0,1-4.8v-16h9.3v32.28h-8.88v-8.94l1.62,2.64a11.45,11.45,0,0,1-4.8,5.07A14,14,0,0,1,104.29,485.11Z" transform="translate(-6.1)"/><path d="M128.05,460.27v-7.2h22.38v7.2Zm17,24.84q-5.7,0-8.88-2.91T133,473.53V445.21h9.42v28.14a4.52,4.52,0,0,0,1.05,3.18,3.67,3.67,0,0,0,2.85,1.14,6.13,6.13,0,0,0,3.84-1.2l2.46,6.6a9.79,9.79,0,0,1-3.39,1.53A16.89,16.89,0,0,1,145.09,485.11Z" transform="translate(-6.1)"/><path d="M173,485.11a20.57,20.57,0,0,1-9.66-2.16,15.73,15.73,0,0,1-8.7-14.46,16.7,16.7,0,0,1,2.19-8.58,15.41,15.41,0,0,1,6.12-5.91,18.24,18.24,0,0,1,8.85-2.13,17.82,17.82,0,0,1,8.55,2,15.39,15.39,0,0,1,6,5.76,17.23,17.23,0,0,1,2.22,8.94c0,.36,0,.77-.06,1.23s-.08.89-.12,1.29H162.19v-5.46h21.3l-3.66,1.62a8.54,8.54,0,0,0-1-4.38,7.52,7.52,0,0,0-2.82-2.91,8.18,8.18,0,0,0-4.2-1.05,8.35,8.35,0,0,0-4.23,1.05,7.27,7.27,0,0,0-2.85,2.94,9.28,9.28,0,0,0-1,4.47v1.44a8.76,8.76,0,0,0,1.2,4.68,7.86,7.86,0,0,0,3.3,3,11.16,11.16,0,0,0,5,1.05,12,12,0,0,0,4.47-.78,11.14,11.14,0,0,0,3.57-2.34l5,5.4a14.51,14.51,0,0,1-5.58,3.87A20.65,20.65,0,0,1,173,485.11Z" transform="translate(-6.1)"/><path d="M214.45,451.87a15,15,0,0,1,6.86,1.53,11.17,11.17,0,0,1,4.78,4.68,16.69,16.69,0,0,1,1.74,8.07v18.48h-9.36v-17c0-2.6-.58-4.52-1.71-5.76a6.25,6.25,0,0,0-4.84-1.86,8.23,8.23,0,0,0-4,1,6.82,6.82,0,0,0-2.76,2.82,10.49,10.49,0,0,0-1,4.92v16h-9.35V452.35h8.93v8.94l-1.67-2.7a11.93,11.93,0,0,1,5-5A15.36,15.36,0,0,1,214.45,451.87Z" transform="translate(-6.1)"/><path d="M232.45,460.27v-7.2h22.38v7.2Zm17,24.84q-5.7,0-8.88-2.91t-3.18-8.67V445.21h9.42v28.14a4.52,4.52,0,0,0,1,3.18,3.71,3.71,0,0,0,2.86,1.14,6.15,6.15,0,0,0,3.84-1.2l2.46,6.6a9.79,9.79,0,0,1-3.39,1.53A17,17,0,0,1,249.48,485.11Z" transform="translate(-6.1)"/><path d="M267.06,447.85a6,6,0,0,1-4.26-1.5,5.08,5.08,0,0,1,0-7.44,6,6,0,0,1,4.26-1.5,6.33,6.33,0,0,1,4.24,1.41,4.58,4.58,0,0,1,1.64,3.63,5.09,5.09,0,0,1-1.62,3.87A6,6,0,0,1,267.06,447.85Zm-4.68,36.78V452.35h9.36v32.28Z" transform="translate(-6.1)"/><path d="M296,485.11a19.62,19.62,0,0,1-9.27-2.13,16.64,16.64,0,0,1-6.36-23.07,16.41,16.41,0,0,1,6.36-5.88,19.39,19.39,0,0,1,9.27-2.16A18,18,0,0,1,305,454a12.36,12.36,0,0,1,5.49,6l-7.2,4a8.68,8.68,0,0,0-3.18-3.33,8.16,8.16,0,0,0-4.08-1.05,8.73,8.73,0,0,0-4.26,1.05,7.82,7.82,0,0,0-3.06,3,9.47,9.47,0,0,0-1.14,4.8,9.64,9.64,0,0,0,1.14,4.83,7.76,7.76,0,0,0,3.06,3.06,8.73,8.73,0,0,0,4.26,1.05,8.16,8.16,0,0,0,4.08-1.05,8.59,8.59,0,0,0,3.18-3.39l7.2,4a12.56,12.56,0,0,1-5.49,6A17.76,17.76,0,0,1,296,485.11Z" transform="translate(-6.1)"/><path d="M325.86,485.11a14.77,14.77,0,0,1-6.42-1.29,10.06,10.06,0,0,1-4.17-3.51,8.82,8.82,0,0,1-1.47-5,8.5,8.5,0,0,1,5.88-8.4,22.41,22.41,0,0,1,8-1.2h8.52v5.4h-7.56q-3.3,0-4.53,1.08a3.44,3.44,0,0,0-1.23,2.7,3.37,3.37,0,0,0,1.41,2.85,6.24,6.24,0,0,0,3.81,1.05,8.49,8.49,0,0,0,4.29-1.08,5.9,5.9,0,0,0,2.67-3.3l1.44,4.38a8.5,8.5,0,0,1-3.72,4.65A13.18,13.18,0,0,1,325.86,485.11Zm9.84-.48v-6.3l-.6-1.38V465.67a6,6,0,0,0-1.83-4.68q-1.83-1.68-5.61-1.68a16.29,16.29,0,0,0-5.07.81,14.21,14.21,0,0,0-4.29,2.19l-3.3-6.54a19,19,0,0,1,6.36-2.91,29.27,29.27,0,0,1,7.56-1q7.38,0,11.46,3.48t4.08,10.86v18.42Z" transform="translate(-6.1)"/><path d="M368.76,485.11a19.62,19.62,0,0,1-9.27-2.13,16.64,16.64,0,0,1-6.36-23.07,16.41,16.41,0,0,1,6.36-5.88,19.39,19.39,0,0,1,9.27-2.16,18,18,0,0,1,8.91,2.13,12.36,12.36,0,0,1,5.49,6l-7.2,4a8.68,8.68,0,0,0-3.18-3.33,8.16,8.16,0,0,0-4.08-1.05,8.73,8.73,0,0,0-4.26,1.05,7.82,7.82,0,0,0-3.06,3,9.47,9.47,0,0,0-1.14,4.8,9.64,9.64,0,0,0,1.14,4.83,7.76,7.76,0,0,0,3.06,3.06,8.73,8.73,0,0,0,4.26,1.05,8.16,8.16,0,0,0,4.08-1.05A8.59,8.59,0,0,0,376,473l7.2,4a12.56,12.56,0,0,1-5.49,6A17.76,17.76,0,0,1,368.76,485.11Z" transform="translate(-6.1)"/><path d="M393.06,447.85a6,6,0,0,1-4.26-1.5,5.08,5.08,0,0,1,0-7.44,6,6,0,0,1,4.26-1.5,6.28,6.28,0,0,1,4.23,1.41,4.56,4.56,0,0,1,1.65,3.63,5.09,5.09,0,0,1-1.62,3.87A6,6,0,0,1,393.06,447.85Zm-4.68,36.78V452.35h9.36v32.28Z" transform="translate(-6.1)"/><path d="M421.74,485.11a18.79,18.79,0,0,1-9.09-2.16,16.78,16.78,0,0,1-6.27-23.07,16,16,0,0,1,6.27-5.88,19,19,0,0,1,9.09-2.13,19.31,19.31,0,0,1,9.18,2.13,16,16,0,0,1,6.3,5.88,16.36,16.36,0,0,1-6.3,23.07A19.09,19.09,0,0,1,421.74,485.11Zm0-7.68a8.35,8.35,0,0,0,4.23-1.05,7.7,7.7,0,0,0,2.94-3.09,9.89,9.89,0,0,0,1.11-4.8,9.68,9.68,0,0,0-1.11-4.8,7.8,7.8,0,0,0-2.94-3,8.23,8.23,0,0,0-4.17-1.05,8.39,8.39,0,0,0-4.2,1.05,7.73,7.73,0,0,0-3,3,9.68,9.68,0,0,0-1.11,4.8,9.89,9.89,0,0,0,1.11,4.8,7.64,7.64,0,0,0,3,3.09A8.27,8.27,0,0,0,421.74,477.43Zm-5.58-29.22,8.1-8.64h10l-10.8,8.64Z" transform="translate(-6.1)"/><path d="M465.36,451.87a15,15,0,0,1,6.87,1.53,11.09,11.09,0,0,1,4.77,4.68,16.58,16.58,0,0,1,1.74,8.07v18.48h-9.36v-17q0-3.9-1.71-5.76a6.23,6.23,0,0,0-4.83-1.86,8.23,8.23,0,0,0-4,1,6.71,6.71,0,0,0-2.76,2.82,10.49,10.49,0,0,0-1,4.92v16h-9.36V452.35h8.94v8.94l-1.68-2.7a12,12,0,0,1,5-5A15.35,15.35,0,0,1,465.36,451.87Z" transform="translate(-6.1)"/><line class="cls-4" x1="166.63" y1="238.43" x2="345.04" y2="60.02"/><line class="cls-4" x1="345.04" y1="238.43" x2="166.63" y2="60.02"/></g></g></svg>