<svg xmlns="http://www.w3.org/2000/svg" viewBox="0 0 889.69 619"><defs><style>.cls-1{fill:#ddd;}.cls-2{fill:#5e5e5e;}.cls-3{fill:#29abe2;}.cls-4{fill:#ededed;}</style></defs><g id="Capa_2" data-name="Capa 2"><g id="Capa_1-2" data-name="Capa 1"><rect class="cls-1" x="2.5" y="233.59" width="285.06" height="382.91" rx="37.42"/><path class="cls-2" d="M250.14,619H39.92A40,40,0,0,1,0,579.07V271a40,40,0,0,1,39.92-39.92H250.14A40,40,0,0,1,290.06,271V579.07A40,40,0,0,1,250.14,619ZM39.92,236.09A35,35,0,0,0,5,271V579.07A35,35,0,0,0,39.92,614H250.14a35,35,0,0,0,34.92-34.93V271a35,35,0,0,0-34.92-34.92Z"/><circle class="cls-2" cx="145.03" cy="425.04" r="19.21"/><path class="cls-2" d="M77.58,499.08a6.57,6.57,0,0,1-4.65-1.93,102,102,0,0,1,0-144.22,6.59,6.59,0,0,1,9.31,9.32,88.79,88.79,0,0,0,0,125.58,6.59,6.59,0,0,1-4.66,11.25Z"/><path class="cls-2" d="M212.48,499.08a6.59,6.59,0,0,1-4.65-11.25,88.82,88.82,0,0,0,0-125.58,6.59,6.59,0,0,1,9.31-9.32,102,102,0,0,1,0,144.22A6.6,6.6,0,0,1,212.48,499.08Z"/><path class="cls-2" d="M96.85,479.81a6.57,6.57,0,0,1-4.65-1.93,74.71,74.71,0,0,1,0-105.67,6.58,6.58,0,0,1,9.31,9.31,61.54,61.54,0,0,0,0,87,6.59,6.59,0,0,1-4.66,11.25Z"/><path class="cls-2" d="M193.21,479.81a6.59,6.59,0,0,1-4.66-11.25,61.54,61.54,0,0,0,0-87,6.59,6.59,0,0,1,9.32-9.31,74.73,74.73,0,0,1,0,105.67A6.6,6.6,0,0,1,193.21,479.81Z"/><path class="cls-3" d="M486.64,230.22a11,11,0,0,1-3.54-.59c-3.35-1.14-6.63-2.17-10-3.15a11,11,0,0,1,6.13-21.13c3.71,1.07,7.29,2.2,11,3.45a11,11,0,0,1-3.53,21.42Z"/><path class="cls-3" d="M197.7,309.67a11,11,0,0,1-8.38-18.12c4.52-5.33,9.28-10.54,14.15-15.5a11,11,0,0,1,15.69,15.42c-4.5,4.58-8.89,9.39-13.07,14.31A11,11,0,0,1,197.7,309.67Zm44.71-42a11,11,0,0,1-6.58-19.83c5.61-4.17,11.45-8.17,17.34-11.89a11,11,0,0,1,11.74,18.61c-5.42,3.41-10.78,7.09-15.94,10.93A11,11,0,0,1,242.41,267.64Zm53.16-30.58a11,11,0,0,1-4.33-21.12c6.43-2.75,13-5.28,19.64-7.52a11,11,0,1,1,7.06,20.84c-6.06,2.05-12.14,4.38-18.05,6.91A11,11,0,0,1,295.57,237.06Zm58.83-17.29a11,11,0,0,1-1.82-21.85c6.86-1.16,13.87-2.07,20.85-2.71a11,11,0,1,1,2,21.91c-6.42.59-12.87,1.42-19.18,2.49A10.56,10.56,0,0,1,354.4,219.77Zm81.38-1.27a12.07,12.07,0,0,1-1.46-.1c-6.4-.85-12.9-1.47-19.31-1.86a11,11,0,0,1,1.32-22c6.94.42,14,1.09,20.88,2a11,11,0,0,1-1.43,21.91Z"/><path class="cls-3" d="M167.88,352.57a11,11,0,0,1-9.6-16.36c1.89-3.39,3.79-6.62,5.8-9.89a11,11,0,0,1,18.74,11.52c-1.85,3-3.59,6-5.32,9.09A11,11,0,0,1,167.88,352.57Z"/><rect class="cls-1" x="357.86" y="1.5" width="508.67" height="295.45" rx="25"/><path class="cls-2" d="M841.53,298.45H382.86a26.53,26.53,0,0,1-26.5-26.5V26.5A26.53,26.53,0,0,1,382.86,0H841.53A26.53,26.53,0,0,1,868,26.5V272A26.53,26.53,0,0,1,841.53,298.45ZM382.86,3a23.52,23.52,0,0,0-23.5,23.5V272a23.52,23.52,0,0,0,23.5,23.5H841.53A23.53,23.53,0,0,0,865,272V26.5A23.53,23.53,0,0,0,841.53,3Z"/><rect class="cls-4" x="388.01" y="21.55" width="146.98" height="127.67" rx="25"/><path class="cls-2" d="M461.5,92.39a56.81,56.81,0,0,0-56.8,55.41,24.83,24.83,0,0,0,8.31,1.42h97a24.88,24.88,0,0,0,8.31-1.42A56.82,56.82,0,0,0,461.5,92.39Z"/><circle class="cls-2" cx="461.5" cy="60.36" r="27.78"/><path class="cls-4" d="M768.9,48.62H562.53a8,8,0,0,1,0-16H768.9a8,8,0,0,1,0,16Z"/><path class="cls-4" d="M824.85,83H562.53a8,8,0,0,1,0-16H824.85a8,8,0,0,1,0,16Z"/><path class="cls-4" d="M785.87,126.59H562.53a8,8,0,0,1,0-16H785.87a8,8,0,0,1,0,16Z"/><path class="cls-4" d="M824.85,185.75H390.1a8,8,0,0,1,0-16H824.85a8,8,0,0,1,0,16Z"/><path class="cls-4" d="M752.39,221.06H390.1a8,8,0,0,1,0-16H752.39a8,8,0,0,1,0,16Z"/><path class="cls-4" d="M814.3,256.37H390.1a8,8,0,0,1,0-16H814.3a8,8,0,0,1,0,16Z"/><path class="cls-3" d="M142.28,397.87a7.78,7.78,0,0,1-7.6-6.19l-14-67.39a7.76,7.76,0,0,1,15.2-3.15l12,57.63,56.22-27.3a7.76,7.76,0,1,1,6.78,14l-65.19,31.66A7.75,7.75,0,0,1,142.28,397.87Z"/><path d="M379.51,430.51l18.66-42h9.6l18.84,42h-10.2L401,393.43h3.9l-15.42,37.08Zm9.42-9,2.46-7.38h21.72l2.52,7.38Z"/><path d="M445.63,431a19.62,19.62,0,0,1-9.27-2.13,15.92,15.92,0,0,1-8.67-14.49,15.93,15.93,0,0,1,2.31-8.58,16.48,16.48,0,0,1,6.36-5.88,19.39,19.39,0,0,1,9.27-2.16,18,18,0,0,1,8.91,2.13,12.36,12.36,0,0,1,5.49,6l-7.2,4a8.68,8.68,0,0,0-3.18-3.33,8.16,8.16,0,0,0-4.08-1.05,8.73,8.73,0,0,0-4.26,1.05,7.82,7.82,0,0,0-3.06,3,9.47,9.47,0,0,0-1.14,4.8,9.64,9.64,0,0,0,1.14,4.83,7.76,7.76,0,0,0,3.06,3.06,8.73,8.73,0,0,0,4.26,1.05,8.16,8.16,0,0,0,4.08-1.05,8.59,8.59,0,0,0,3.18-3.39l7.2,4a12.56,12.56,0,0,1-5.49,6A17.76,17.76,0,0,1,445.63,431Z"/><path d="M481.09,431a20.63,20.63,0,0,1-9.66-2.16,15.73,15.73,0,0,1-8.7-14.46,16.8,16.8,0,0,1,2.19-8.58,15.41,15.41,0,0,1,6.12-5.91,18.27,18.27,0,0,1,8.85-2.13,17.89,17.89,0,0,1,8.56,2,15.36,15.36,0,0,1,6,5.76,17.14,17.14,0,0,1,2.23,8.94c0,.36,0,.77-.07,1.23s-.08.89-.12,1.29H470.29v-5.46h21.3l-3.66,1.62a8.54,8.54,0,0,0-1-4.38,7.45,7.45,0,0,0-2.82-2.91,8.15,8.15,0,0,0-4.19-1.05,8.36,8.36,0,0,0-4.24,1.05,7.25,7.25,0,0,0-2.84,2.94,9.17,9.17,0,0,0-1,4.47v1.44a8.86,8.86,0,0,0,1.2,4.68,7.92,7.92,0,0,0,3.3,3,11.16,11.16,0,0,0,5,1.05,12.06,12.06,0,0,0,4.48-.78,11.1,11.1,0,0,0,3.56-2.34l5,5.4a14.51,14.51,0,0,1-5.58,3.87A20.65,20.65,0,0,1,481.09,431Z"/><path d="M502.93,430.51V398.23h8.94v9.18l-1.26-2.7a10.37,10.37,0,0,1,4.62-5.19,15.7,15.7,0,0,1,7.74-1.77v8.7a10.5,10.5,0,0,0-1.05-.18,8.47,8.47,0,0,0-1-.06,8.78,8.78,0,0,0-6.3,2.22q-2.34,2.22-2.34,6.84v15.24Z"/><path d="M543.86,431a19.62,19.62,0,0,1-9.27-2.13,16.64,16.64,0,0,1-6.36-23.07,16.34,16.34,0,0,1,6.36-5.88,19.39,19.39,0,0,1,9.27-2.16,18,18,0,0,1,8.91,2.13,12.41,12.41,0,0,1,5.49,6l-7.2,4a8.75,8.75,0,0,0-3.18-3.33,8.18,8.18,0,0,0-4.08-1.05,8.73,8.73,0,0,0-4.26,1.05,7.75,7.75,0,0,0-3.06,3,9.37,9.37,0,0,0-1.14,4.8,9.54,9.54,0,0,0,1.14,4.83,7.7,7.7,0,0,0,3.06,3.06,8.73,8.73,0,0,0,4.26,1.05,8.18,8.18,0,0,0,4.08-1.05,8.66,8.66,0,0,0,3.18-3.39l7.2,4a12.61,12.61,0,0,1-5.49,6A17.81,17.81,0,0,1,543.86,431Z"/><path d="M573.67,431a14.77,14.77,0,0,1-6.42-1.29,10.06,10.06,0,0,1-4.17-3.51,8.82,8.82,0,0,1-1.47-5,8.5,8.5,0,0,1,5.88-8.4,22.41,22.41,0,0,1,8-1.2h8.52V417h-7.56q-3.3,0-4.53,1.08a3.44,3.44,0,0,0-1.23,2.7,3.37,3.37,0,0,0,1.41,2.85,6.24,6.24,0,0,0,3.81,1.05,8.49,8.49,0,0,0,4.29-1.08,5.9,5.9,0,0,0,2.67-3.3l1.44,4.38a8.5,8.5,0,0,1-3.72,4.65A13.18,13.18,0,0,1,573.67,431Zm9.84-.48v-6.3l-.6-1.38V411.55a6,6,0,0,0-1.83-4.68q-1.83-1.68-5.61-1.68a16.29,16.29,0,0,0-5.07.81,14.21,14.21,0,0,0-4.29,2.19l-3.3-6.54a19,19,0,0,1,6.36-2.91,29.27,29.27,0,0,1,7.56-1q7.38,0,11.46,3.48t4.08,10.86v18.42Z"/><path d="M617.71,430.51V386h9.36v44.52Z"/><path d="M645.73,431a14.77,14.77,0,0,1-6.42-1.29,10.06,10.06,0,0,1-4.17-3.51,8.82,8.82,0,0,1-1.47-5,8.5,8.5,0,0,1,5.88-8.4,22.41,22.41,0,0,1,8-1.2h8.52V417h-7.56q-3.3,0-4.53,1.08a3.44,3.44,0,0,0-1.23,2.7,3.37,3.37,0,0,0,1.41,2.85,6.24,6.24,0,0,0,3.81,1.05,8.49,8.49,0,0,0,4.29-1.08,5.9,5.9,0,0,0,2.67-3.3l1.44,4.38a8.5,8.5,0,0,1-3.72,4.65A13.18,13.18,0,0,1,645.73,431Zm9.84-.48v-6.3l-.6-1.38V411.55a6,6,0,0,0-1.83-4.68q-1.83-1.68-5.61-1.68a16.29,16.29,0,0,0-5.07.81,14.21,14.21,0,0,0-4.29,2.19l-3.3-6.54a19,19,0,0,1,6.36-2.91,29.27,29.27,0,0,1,7.56-1q7.38,0,11.46,3.48t4.08,10.86v18.42Z"/><path d="M685.93,406.15V399h22.38v7.2ZM703,431q-5.7,0-8.88-2.91t-3.18-8.67V391.09h9.42v28.14a4.52,4.52,0,0,0,1,3.18,3.68,3.68,0,0,0,2.85,1.14,6.11,6.11,0,0,0,3.84-1.2l2.46,6.6a9.62,9.62,0,0,1-3.39,1.53A16.89,16.89,0,0,1,703,431Z"/><path d="M725.83,431a14.77,14.77,0,0,1-6.42-1.29,10.06,10.06,0,0,1-4.17-3.51,8.82,8.82,0,0,1-1.47-5,8.5,8.5,0,0,1,5.88-8.4,22.41,22.41,0,0,1,8-1.2h8.52V417h-7.56q-3.3,0-4.53,1.08a3.44,3.44,0,0,0-1.23,2.7,3.37,3.37,0,0,0,1.41,2.85,6.24,6.24,0,0,0,3.81,1.05,8.49,8.49,0,0,0,4.29-1.08,5.9,5.9,0,0,0,2.67-3.3l1.44,4.38a8.5,8.5,0,0,1-3.72,4.65A13.18,13.18,0,0,1,725.83,431Zm9.84-.48v-6.3l-.6-1.38V411.55a6,6,0,0,0-1.83-4.68q-1.83-1.68-5.61-1.68a16.29,16.29,0,0,0-5.07.81,14.21,14.21,0,0,0-4.29,2.19l-3.3-6.54a19,19,0,0,1,6.36-2.91,29.27,29.27,0,0,1,7.56-1q7.38,0,11.46,3.48t4.08,10.86v18.42Z"/><path d="M752.89,430.51V398.23h8.94v9.18l-1.26-2.7a10.37,10.37,0,0,1,4.62-5.19,15.7,15.7,0,0,1,7.74-1.77v8.7a10.5,10.5,0,0,0-1-.18,8.47,8.47,0,0,0-1-.06,8.78,8.78,0,0,0-6.3,2.22q-2.34,2.22-2.34,6.84v15.24Z"/><path d="M776.41,442.63a18.91,18.91,0,0,1-4.2-.45,10.28,10.28,0,0,1-3.36-1.35l2.52-6.78a6.71,6.71,0,0,0,4,1.14,3.5,3.5,0,0,0,2.79-1.14,5.41,5.41,0,0,0,1-3.6V398.23h9.36v32.16q0,5.64-3.15,8.94T776.41,442.63Zm7.38-48.9a6,6,0,0,1-4.26-1.5,5.08,5.08,0,0,1,0-7.44,6,6,0,0,1,4.26-1.5A6.28,6.28,0,0,1,788,384.7a4.56,4.56,0,0,1,1.65,3.63,5.09,5.09,0,0,1-1.62,3.87A6,6,0,0,1,783.79,393.73Z"/><path d="M813.19,431a20.6,20.6,0,0,1-9.66-2.16,15.73,15.73,0,0,1-8.7-14.46,16.8,16.8,0,0,1,2.19-8.58,15.41,15.41,0,0,1,6.12-5.91,18.27,18.27,0,0,1,8.85-2.13,17.82,17.82,0,0,1,8.55,2,15.32,15.32,0,0,1,6,5.76,17.14,17.14,0,0,1,2.22,8.94q0,.54-.06,1.23t-.12,1.29H802.39v-5.46h21.3L820,413.17a8.54,8.54,0,0,0-1-4.38,7.45,7.45,0,0,0-2.82-2.91,8.18,8.18,0,0,0-4.2-1.05,8.35,8.35,0,0,0-4.23,1.05,7.33,7.33,0,0,0-2.85,2.94,9.28,9.28,0,0,0-1,4.47v1.44a8.86,8.86,0,0,0,1.2,4.68,7.92,7.92,0,0,0,3.3,3,11.16,11.16,0,0,0,5,1.05,12,12,0,0,0,4.47-.78,11,11,0,0,0,3.57-2.34l5,5.4a14.51,14.51,0,0,1-5.58,3.87A20.65,20.65,0,0,1,813.19,431Z"/><path d="M831.19,406.15V399h22.38v7.2Zm17,24.84q-5.7,0-8.88-2.91t-3.18-8.67V391.09h9.42v28.14a4.52,4.52,0,0,0,1,3.18,3.68,3.68,0,0,0,2.85,1.14,6.11,6.11,0,0,0,3.84-1.2l2.46,6.6a9.62,9.62,0,0,1-3.39,1.53A16.89,16.89,0,0,1,848.23,431Z"/><path d="M871.09,431a14.77,14.77,0,0,1-6.42-1.29,10.06,10.06,0,0,1-4.17-3.51,8.82,8.82,0,0,1-1.47-5,8.5,8.5,0,0,1,5.88-8.4,22.41,22.41,0,0,1,8-1.2h8.52V417h-7.56q-3.3,0-4.53,1.08a3.44,3.44,0,0,0-1.23,2.7,3.37,3.37,0,0,0,1.41,2.85,6.24,6.24,0,0,0,3.81,1.05,8.49,8.49,0,0,0,4.29-1.08,5.9,5.9,0,0,0,2.67-3.3l1.44,4.38a8.5,8.5,0,0,1-3.72,4.65A13.18,13.18,0,0,1,871.09,431Zm9.84-.48v-6.3l-.6-1.38V411.55a6,6,0,0,0-1.83-4.68q-1.83-1.68-5.61-1.68a16.29,16.29,0,0,0-5.07.81,14.21,14.21,0,0,0-4.29,2.19l-3.3-6.54a19,19,0,0,1,6.36-2.91,29.27,29.27,0,0,1,7.56-1q7.38,0,11.46,3.48t4.08,10.86v18.42Z"/><path d="M413.05,503a14.77,14.77,0,0,1-6.42-1.29,10.06,10.06,0,0,1-4.17-3.51,8.81,8.81,0,0,1-1.46-5,8.5,8.5,0,0,1,5.88-8.4,22.37,22.37,0,0,1,8-1.2h8.51V489h-7.55c-2.21,0-3.72.36-4.54,1.08a3.44,3.44,0,0,0-1.23,2.7,3.37,3.37,0,0,0,1.41,2.85,6.24,6.24,0,0,0,3.81,1.05,8.49,8.49,0,0,0,4.29-1.08,5.9,5.9,0,0,0,2.67-3.3l1.45,4.38a8.51,8.51,0,0,1-3.73,4.65A13.18,13.18,0,0,1,413.05,503Zm9.85-.48v-6.3l-.61-1.38V483.55a6,6,0,0,0-1.83-4.68c-1.22-1.12-3.08-1.68-5.61-1.68a16.29,16.29,0,0,0-5.07.81,14,14,0,0,0-4.28,2.19l-3.31-6.54a19,19,0,0,1,6.36-2.91,29.27,29.27,0,0,1,7.56-1q7.38,0,11.47,3.48c2.71,2.32,4.08,5.94,4.08,10.86v18.42Z"/><path d="M440.11,502.51V458h9.36v44.52Z"/><path d="M479.83,465.73a6,6,0,0,1-4.26-1.5,5.08,5.08,0,0,1,0-7.44,6,6,0,0,1,4.26-1.5,6.28,6.28,0,0,1,4.23,1.41,4.56,4.56,0,0,1,1.65,3.63,5.09,5.09,0,0,1-1.62,3.87A6,6,0,0,1,479.83,465.73Zm-4.68,36.78V470.23h9.36v32.28Z"/><path d="M507.07,503a16.4,16.4,0,0,1-8.22-2.07,15,15,0,0,1-5.76-5.79,19.32,19.32,0,0,1,0-17.52,15,15,0,0,1,5.76-5.79,16.4,16.4,0,0,1,8.22-2.07,13.82,13.82,0,0,1,7.14,1.8A11.83,11.83,0,0,1,519,477a22.53,22.53,0,0,1,1.68,9.36,23.53,23.53,0,0,1-1.62,9.36,11.35,11.35,0,0,1-4.65,5.49A14.21,14.21,0,0,1,507.07,503Zm1.56-7.68a8.39,8.39,0,0,0,4.2-1.05,7.64,7.64,0,0,0,3-3.09,9.89,9.89,0,0,0,1.11-4.8,9.68,9.68,0,0,0-1.11-4.8,7.73,7.73,0,0,0-3-3,8.39,8.39,0,0,0-4.2-1.05,8.27,8.27,0,0,0-4.14,1.05,7.73,7.73,0,0,0-3,3,9.68,9.68,0,0,0-1.11,4.8,9.89,9.89,0,0,0,1.11,4.8,7.64,7.64,0,0,0,3,3.09A8.27,8.27,0,0,0,508.63,495.31Zm8.52,7.2v-6.6l.18-9.6-.6-9.54V458h9.36v44.52Z"/><path d="M550.75,503a20.6,20.6,0,0,1-9.66-2.16,15.73,15.73,0,0,1-8.7-14.46,16.8,16.8,0,0,1,2.19-8.58,15.41,15.41,0,0,1,6.12-5.91,18.27,18.27,0,0,1,8.85-2.13,17.82,17.82,0,0,1,8.55,2,15.32,15.32,0,0,1,6,5.76,17.14,17.14,0,0,1,2.22,8.94q0,.54-.06,1.23t-.12,1.29H540v-5.46h21.3l-3.66,1.62a8.54,8.54,0,0,0-1-4.38,7.45,7.45,0,0,0-2.82-2.91,8.18,8.18,0,0,0-4.2-1.05,8.35,8.35,0,0,0-4.23,1.05,7.33,7.33,0,0,0-2.85,2.94,9.28,9.28,0,0,0-1,4.47v1.44a8.86,8.86,0,0,0,1.2,4.68,7.92,7.92,0,0,0,3.3,3,11.16,11.16,0,0,0,5,1.05,12,12,0,0,0,4.47-.78,11,11,0,0,0,3.57-2.34l5,5.4a14.51,14.51,0,0,1-5.58,3.87A20.65,20.65,0,0,1,550.75,503Z"/><path d="M592.21,469.75a15,15,0,0,1,6.87,1.53,11.09,11.09,0,0,1,4.77,4.68,16.58,16.58,0,0,1,1.74,8.07v18.48h-9.36v-17q0-3.9-1.71-5.76a6.23,6.23,0,0,0-4.83-1.86,8.23,8.23,0,0,0-4,1,6.71,6.71,0,0,0-2.76,2.82,10.49,10.49,0,0,0-1,4.92v16h-9.36V470.23h8.94v8.94l-1.68-2.7a12,12,0,0,1,5-5A15.35,15.35,0,0,1,592.21,469.75Z"/><path d="M610.21,478.15V471h22.38v7.2Zm17,24.84q-5.7,0-8.88-2.91t-3.18-8.67V463.09h9.42v28.14a4.52,4.52,0,0,0,1,3.18,3.68,3.68,0,0,0,2.85,1.14,6.11,6.11,0,0,0,3.84-1.2l2.46,6.6a9.62,9.62,0,0,1-3.39,1.53A16.89,16.89,0,0,1,627.25,503Z"/><path d="M644.83,465.73a6,6,0,0,1-4.26-1.5,5.08,5.08,0,0,1,0-7.44,6,6,0,0,1,4.26-1.5,6.28,6.28,0,0,1,4.23,1.41,4.56,4.56,0,0,1,1.65,3.63,5.09,5.09,0,0,1-1.62,3.87A6,6,0,0,1,644.83,465.73Zm-4.68,36.78V470.23h9.36v32.28Z"/><path d="M654.37,478.15V471h22.38v7.2Zm5,24.36v-33a11.84,11.84,0,0,1,3.24-8.76q3.24-3.24,9.24-3.24a18.2,18.2,0,0,1,3.9.42,10,10,0,0,1,3.24,1.26L676.51,466a6.38,6.38,0,0,0-1.74-.84,6.8,6.8,0,0,0-2-.3,4.2,4.2,0,0,0-3.15,1.14,5,5,0,0,0-1.11,3.6v3l.3,4v25.92Zm27.36-36.78a6,6,0,0,1-4.26-1.5,5.08,5.08,0,0,1,0-7.44,6,6,0,0,1,4.26-1.5,6.28,6.28,0,0,1,4.23,1.41,4.56,4.56,0,0,1,1.65,3.63A5.09,5.09,0,0,1,691,464.2,6,6,0,0,1,686.71,465.73ZM682,502.51V470.23h9.36v32.28Z"/><path d="M715.63,503a19.62,19.62,0,0,1-9.27-2.13A16.64,16.64,0,0,1,700,477.79a16.41,16.41,0,0,1,6.36-5.88,19.39,19.39,0,0,1,9.27-2.16,18,18,0,0,1,8.91,2.13,12.36,12.36,0,0,1,5.49,6l-7.2,4a8.68,8.68,0,0,0-3.18-3.33,8.16,8.16,0,0,0-4.08-1.05,8.73,8.73,0,0,0-4.26,1.05,7.82,7.82,0,0,0-3.06,3,9.47,9.47,0,0,0-1.14,4.8,9.64,9.64,0,0,0,1.14,4.83,7.76,7.76,0,0,0,3.06,3.06,8.73,8.73,0,0,0,4.26,1.05,8.16,8.16,0,0,0,4.08-1.05,8.59,8.59,0,0,0,3.18-3.39l7.2,4a12.56,12.56,0,0,1-5.49,6A17.76,17.76,0,0,1,715.63,503Z"/><path d="M745.45,503A14.77,14.77,0,0,1,739,501.7a10.06,10.06,0,0,1-4.17-3.51,8.82,8.82,0,0,1-1.47-5,8.5,8.5,0,0,1,5.88-8.4,22.41,22.41,0,0,1,8-1.2h8.52V489h-7.56q-3.3,0-4.53,1.08a3.44,3.44,0,0,0-1.23,2.7,3.37,3.37,0,0,0,1.41,2.85,6.24,6.24,0,0,0,3.81,1.05,8.49,8.49,0,0,0,4.29-1.08,5.9,5.9,0,0,0,2.67-3.3l1.44,4.38a8.5,8.5,0,0,1-3.72,4.65A13.18,13.18,0,0,1,745.45,503Zm9.84-.48v-6.3l-.6-1.38V483.55a6,6,0,0,0-1.83-4.68q-1.83-1.68-5.61-1.68a16.29,16.29,0,0,0-5.07.81,14.21,14.21,0,0,0-4.29,2.19l-3.3-6.54a19,19,0,0,1,6.36-2.91,29.27,29.27,0,0,1,7.56-1q7.38,0,11.46,3.48t4.08,10.86v18.42Z"/><path d="M786.61,503a16.4,16.4,0,0,1-8.22-2.07,15,15,0,0,1-5.76-5.79,19.32,19.32,0,0,1,0-17.52,15,15,0,0,1,5.76-5.79,16.4,16.4,0,0,1,8.22-2.07,13.82,13.82,0,0,1,7.14,1.8,11.83,11.83,0,0,1,4.74,5.46,22.53,22.53,0,0,1,1.68,9.36,23.53,23.53,0,0,1-1.62,9.36,11.35,11.35,0,0,1-4.65,5.49A14.21,14.21,0,0,1,786.61,503Zm1.56-7.68a8.39,8.39,0,0,0,4.2-1.05,7.64,7.64,0,0,0,3-3.09,9.89,9.89,0,0,0,1.11-4.8,9.68,9.68,0,0,0-1.11-4.8,7.73,7.73,0,0,0-3-3,8.39,8.39,0,0,0-4.2-1.05,8.27,8.27,0,0,0-4.14,1.05,7.73,7.73,0,0,0-3,3,9.68,9.68,0,0,0-1.11,4.8,9.89,9.89,0,0,0,1.11,4.8,7.64,7.64,0,0,0,3,3.09A8.27,8.27,0,0,0,788.17,495.31Zm8.52,7.2v-6.6l.18-9.6-.6-9.54V458h9.36v44.52Z"/><path d="M829.57,503a18.79,18.79,0,0,1-9.09-2.16,16.78,16.78,0,0,1-6.27-23.07,16,16,0,0,1,6.27-5.88,19,19,0,0,1,9.09-2.13,19.31,19.31,0,0,1,9.18,2.13,16,16,0,0,1,6.3,5.88,16.36,16.36,0,0,1-6.3,23.07A19.09,19.09,0,0,1,829.57,503Zm0-7.68a8.35,8.35,0,0,0,4.23-1.05,7.7,7.7,0,0,0,2.94-3.09,9.89,9.89,0,0,0,1.11-4.8,9.68,9.68,0,0,0-1.11-4.8,7.8,7.8,0,0,0-2.94-3,8.23,8.23,0,0,0-4.17-1.05,8.39,8.39,0,0,0-4.2,1.05,7.73,7.73,0,0,0-3,3,9.68,9.68,0,0,0-1.11,4.8,9.89,9.89,0,0,0,1.11,4.8,7.64,7.64,0,0,0,3,3.09A8.27,8.27,0,0,0,829.57,495.31Z"/><path d="M853.57,502.51V470.23h8.94v9.18l-1.26-2.7a10.37,10.37,0,0,1,4.62-5.19,15.7,15.7,0,0,1,7.74-1.77v8.7a10.5,10.5,0,0,0-1.05-.18,8.47,8.47,0,0,0-1-.06,8.78,8.78,0,0,0-6.3,2.22q-2.34,2.22-2.34,6.84v15.24Z"/></g></g></svg>